<?xml version="1.0" encoding="utf-8"?>
<!-- Generator: Adobe Illustrator 25.0.0, SVG Export Plug-In . SVG Version: 6.00 Build 0)  -->
<svg version="1.1" id="Capa_1" xmlns="http://www.w3.org/2000/svg" xmlns:xlink="http://www.w3.org/1999/xlink" x="0px" y="0px"
	 viewBox="0 0 150 50" style="enable-background:new 0 0 150 50;" xml:space="preserve">
<style type="text/css">
	.st0{opacity:0.33;}
	.st1{fill:#22398E;}
	.st2{fill:#E30519;}
	.st3{fill:#E30613;}
</style>
<g>
	<path class="st0" d="M38.1,17.2c0.1,0,0.1,0.1,0.1,0.1c0.4-0.8,0.6-1.6,0.7-2.4c-1-0.6-2.1-1-3.3-1.1c0,0-0.1,0-0.1,0
		c0,0.9-0.3,1.7-0.8,2.5C36,16.2,37.1,16.5,38.1,17.2z"/>
	<path class="st0" d="M27.8,23.1c0.3-0.3,0.7-0.5,1.1-0.7c0.3-0.2,0.7-0.3,1.1-0.4c-0.1-0.8,0-1.6,0.3-2.4c0.2-0.5,0.4-0.9,0.7-1.3
		c-0.2,0-0.3,0.1-0.5,0.1c0,0-0.1,0-0.1,0c-0.8,0.1-1.8,0.4-2.7,0.7c-0.2,0.8-0.4,1.6-0.4,2.4c0,0.6,0.1,1.2,0.2,1.8
		C27.6,23.2,27.7,23.2,27.8,23.1z"/>
	<path class="st0" d="M18.9,20.2C18.8,20.2,18.9,20.1,18.9,20.2L18.9,20.2z"/>
	<path class="st1" d="M43.4,38.6c0-1.8-0.6-3.4-1.5-4.8c0,0-0.1-0.1-0.1-0.1c-0.1-0.1-0.1-0.2-0.2-0.2c-0.3-0.4-0.5-0.8-0.7-1.2
		c-0.3-0.8-0.5-1.7-0.5-2.5c0-0.4,0.1-0.9,0.2-1.3c0.2-0.7,0.5-1.3,0.9-1.8c0.3-0.4,0.6-0.8,0.8-1.2c0-0.1,0.1-0.1,0.1-0.1
		c0.7-1.3,1.1-2.8,1-4.4c-0.3-4.1-3.5-7.4-7.6-7.7c-0.2,0-0.4,0-0.6,0v0c0,0,0,0,0,0c0,0,0,0,0,0v0c-0.2,0-0.4,0-0.6,0
		c-4.1,0.3-7.3,3.6-7.6,7.7c-0.1,1.6,0.3,3.1,1,4.4c0,0,0,0.1,0.1,0.1c0.2,0.4,0.5,0.8,0.8,1.2c0.4,0.5,0.8,1.1,0.9,1.8
		c0.1,0.5,0.2,0.9,0.2,1.3c0,0.8-0.2,1.7-0.5,2.5c-0.2,0.4-0.4,0.8-0.7,1.2c-0.1,0.1-0.1,0.2-0.2,0.2c0,0-0.1,0.1-0.1,0.1
		c-1,1.4-1.5,3-1.5,4.8c0,4.6,3.7,8.3,8.3,8.3v0c0,0,0,0,0,0c0,0,0,0,0,0v0C39.7,46.9,43.5,43.1,43.4,38.6z M36.8,29.3
		c0,0.1,0,0.2,0,0.3c0,0.3,0,0.5,0,0.7c0,0,0.1,0.9,0.2,1.9c0.2,1.1,0.7,2.2,1.4,3.1c0.7,0.8,1.1,1.8,1.1,2.9c0,1.9-1.1,3.5-2.8,4.2
		c0,0-0.1,0-0.1,0c0,0,0,0,0,0c-0.4,0.2-0.9,0.3-1.4,0.3c0,0-0.1,0-0.1,0c0,0,0,0,0,0c0,0,0,0,0,0c0,0,0,0,0,0v0c0,0,0,0,0,0
		c0,0,0,0,0,0v0c0,0,0,0,0,0c0,0,0,0,0,0c0,0,0,0,0,0c0,0-0.1,0-0.1,0c-0.5,0-0.9-0.1-1.4-0.3c0,0,0,0,0,0c0,0-0.1,0-0.1,0
		c-1.6-0.7-2.8-2.3-2.8-4.2c0-1.1,0.4-2.1,1.1-2.9c0.7-0.9,1.2-2,1.4-3.1c0.2-1,0.3-1.9,0.2-1.9c0-0.2,0-0.5,0-0.7
		c0-0.1,0-0.2,0-0.3c0,0,0,0,0,0c0-0.2,0-0.3,0-0.5c-0.1-1.1-0.8-2.9-1.6-4.1c0,0,0-0.1,0-0.1c-0.8-1.5-1.3-2.1-1.3-3.4
		c0-2.6,2.1-4.6,4.7-4.6c2.6,0,4.7,2,4.7,4.6c0,1.3-0.5,1.9-1.3,3.4c0,0,0,0.1,0,0.1c-0.8,1.2-1.5,3-1.6,4.1
		C36.8,29,36.8,29.1,36.8,29.3C36.8,29.3,36.8,29.3,36.8,29.3z"/>
	<path class="st0" d="M35.1,17.3L35.1,17.3c-1,0-2,0.4-2.8,1.1c-0.7,0.7-1.2,1.7-1.2,2.8c0,0.3,0,0.5,0.1,0.7c0.4,0,0.7-0.1,1.1-0.1
		c0.1,0,0.1,0,0.1,0c1.5-0.3,2.9-1,4-2.1c0.4-0.4,0.8-0.9,1.2-1.4C37,17.6,36.1,17.3,35.1,17.3L35.1,17.3z"/>
	<path class="st2" d="M26.7,24.3c-0.4-1.1-0.6-2.4-0.5-3.6c0-0.3,0.1-0.6,0.1-0.9c0,0-0.1,0-0.1,0.1c-0.1,0.1-0.3,0.2-0.4,0.3
		c0,0,0,0,0,0c-0.1,0.1-0.2,0.1-0.2,0.2c-0.2,0.2-0.4,0.3-0.6,0.5c0,0-0.6,0.6-1.3,1.4c-0.7,0.9-1.3,1.9-1.5,3.1
		c-0.2,1-0.7,2-1.6,2.7c-1.5,1.2-3.4,1.4-5,0.6c0,0-0.1,0-0.1-0.1c0,0,0,0,0,0c-0.4-0.2-0.8-0.5-1.1-0.9c0,0-0.1-0.1-0.1-0.1
		c0,0,0,0,0,0c0,0,0,0,0,0c0,0,0,0,0,0l0,0c0,0,0,0,0,0c0,0,0,0,0,0l0,0c0,0,0,0,0,0c0,0,0,0,0,0c0,0,0,0,0,0c0,0-0.1-0.1-0.1-0.1
		c-0.3-0.4-0.5-0.8-0.7-1.2c0,0,0,0,0,0c0,0,0-0.1,0-0.1c-0.5-1.7,0-3.6,1.4-4.8c0.9-0.7,1.9-1.1,2.9-1.1c1.2,0,2.3-0.3,3.3-0.9
		c0.9-0.5,1.6-1,1.6-1c0.2-0.1,0.4-0.3,0.6-0.5c0.1-0.1,0.2-0.1,0.2-0.2c0,0,0,0,0,0c0.1-0.1,0.2-0.2,0.4-0.3
		c0.8-0.8,1.7-2.5,2.1-3.9c0,0,0-0.1,0-0.1c0.6-1.6,0.8-2.4,1.8-3.2c2-1.6,4.9-1.4,6.5,0.6c0.4,0.5,0.7,1,0.9,1.6l0.6,0v0
		c1.1,0.1,2.2,0.4,3.1,0.9c-0.1-1.5-0.6-3-1.5-4.3c-0.1-0.2-0.2-0.3-0.4-0.5l0,0c0,0,0,0,0,0c0,0,0,0,0,0l0,0
		C37,8.2,36.9,8,36.8,7.9C33.9,5,29.3,4.6,26,7c-1.3,1-2.2,2.2-2.8,3.6c0,0,0,0.1-0.1,0.1c-0.2,0.5-0.3,0.9-0.4,1.4
		c-0.1,0.7-0.4,1.3-0.8,1.9c-0.3,0.4-0.6,0.7-0.9,1c-0.6,0.5-1.4,1-2.3,1.2c-0.4,0.1-0.9,0.2-1.4,0.2c-0.1,0-0.2,0-0.3,0
		c0,0-0.2,0-0.2,0c-1.7,0.1-3.3,0.8-4.6,1.9c-3.5,2.9-4,8.2-1.1,11.7l0,0c0,0,0,0,0,0c0,0,0,0,0,0l0,0c3,3.5,8.2,3.9,11.7,1
		c1.4-1.1,2.3-2.6,2.7-4.2c0,0,0-0.1,0-0.2c0-0.1,0-0.2,0.1-0.3c0.1-0.5,0.2-0.9,0.5-1.3C26.3,24.8,26.5,24.6,26.7,24.3z"/>
</g>
<g>
	<path class="st1" d="M66.5,31.4l-0.9,2.3c-0.1,0.2-0.2,0.3-0.4,0.3h-8.2c-0.9,0-1.4-0.2-1.7-0.7c-0.3-0.5-0.3-1.2,0-2L61,16.6
		c0.1-0.2,0.2-0.3,0.4-0.3h3.4c0.3,0,0.4,0.1,0.3,0.4L59.5,31h6.7C66.5,31,66.6,31.1,66.5,31.4z M56.2,31.2L56.2,31.2L56.2,31.2
		L56.2,31.2z M57.1,31.3L57.1,31.3l-0.1,0.1c0,0-0.1,0-0.1,0.1c-0.1,0.1-0.2,0.2-0.3,0.3c-0.1,0.1-0.2,0.2-0.3,0.3c0,0,0,0,0,0
		c0,0,0,0,0,0c0,0,0,0,0,0c0.1-0.1,0.3-0.2,0.4-0.4c0.1-0.1,0.1-0.2,0.3-0.3c0,0,0,0,0-0.1c0,0,0-0.1,0-0.1
		C57,31.4,57,31.4,57.1,31.3C57,31.3,57.1,31.3,57.1,31.3z M56.5,31.4L56.5,31.4C56.5,31.4,56.5,31.4,56.5,31.4L56.5,31.4
		c0.1,0,0.1,0,0.1,0.1v0c0.1,0,0.1-0.1,0.1-0.1C56.6,31.3,56.6,31.3,56.5,31.4C56.5,31.3,56.5,31.3,56.5,31.4z M56.5,31.6
		c0,0,0.1,0,0.1-0.1C56.5,31.5,56.5,31.5,56.5,31.6z M57.8,28.3C57.8,28.4,57.9,28.4,57.8,28.3c0.1,0.1,0.1,0.1,0.1,0.1c0,0,0,0,0,0
		c0,0,0,0,0,0c0,0,0,0,0-0.1l-0.1-0.1l-0.1-0.1c-0.1,0-0.1-0.1-0.2-0.1c-0.1,0-0.1-0.1-0.1-0.1c0,0-0.1,0-0.1,0h0c0,0,0,0,0,0
		c0,0-0.1,0-0.1,0c0,0.1,0.1,0.1,0.1,0.2C57.6,28.1,57.7,28.2,57.8,28.3z M57.5,32.3L57.5,32.3L57.5,32.3L57.5,32.3
		C57.4,32.3,57.5,32.3,57.5,32.3z M57.6,30.2c0,0-0.1,0-0.1-0.1c0,0,0,0,0,0c0,0,0,0,0,0v0C57.5,30.2,57.5,30.2,57.6,30.2z
		 M58.4,30.9c-0.1-0.1-0.2-0.2-0.3-0.4c-0.1-0.1-0.3-0.2-0.4-0.3c0,0.1,0,0.2,0,0.1c0,0.1,0,0.1,0.1,0.1c0,0,0.1,0.1,0.1,0.1
		c0.1,0.1,0.1,0.1,0.2,0.2C58.1,30.8,58.2,30.9,58.4,30.9C58.3,30.9,58.3,30.9,58.4,30.9z M58.1,28.4c0,0.1,0,0.1,0.1,0.1
		c0,0,0.1,0.1,0.1,0.1c0,0,0,0,0,0v0c0,0,0-0.1-0.1-0.1C58.1,28.5,58.1,28.4,58.1,28.4z M58.1,33L58.1,33L58.1,33
		C58.1,33,58.1,33,58.1,33z M58.2,33L58.2,33L58.2,33L58.2,33z M58.3,28.1L58.3,28.1L58.3,28.1L58.3,28.1z M58.4,25.3L58.4,25.3
		L58.4,25.3C58.3,25.3,58.3,25.3,58.4,25.3z M58.4,27L58.4,27L58.4,27L58.4,27L58.4,27L58.4,27L58.4,27z M58.4,30.8L58.4,30.8
		C58.4,30.8,58.4,30.8,58.4,30.8L58.4,30.8L58.4,30.8C58.4,30.8,58.4,30.8,58.4,30.8z M59.5,26.7c-0.1,0-0.2,0.1-0.3,0.2
		c0,0,0,0,0,0.1c0,0,0,0-0.1,0c0,0-0.1,0.1-0.1,0.1v0c-0.1,0-0.1,0.1-0.1,0.2v0.1c0,0,0,0,0,0l0,0c0,0,0,0,0,0c0,0,0,0,0,0l-0.1,0
		v-0.1c0,0-0.1,0.1-0.1,0.1c0,0,0,0.1-0.1,0.1l0.1,0.1c0,0,0,0,0,0c0.1,0,0.1,0,0.1-0.1h0c0,0,0,0,0,0h0c0,0,0.1-0.1,0.2-0.1
		c0,0,0,0,0,0l0.5-0.5c0,0,0,0,0,0C59.5,26.8,59.5,26.8,59.5,26.7z M58.5,25.3C58.5,25.4,58.5,25.4,58.5,25.3L58.5,25.3
		c0.1,0,0.1,0,0.2,0c0.1-0.1,0.1-0.1,0.2-0.1c0,0,0.1-0.1,0.1-0.1h0c0,0,0,0,0-0.1v0l0.1-0.1c0,0,0,0,0-0.1c-0.1,0-0.1,0-0.1,0
		c0,0-0.1,0.1-0.1,0.1l0.1,0.1c-0.1,0-0.2,0-0.3,0h0l0,0v0c0,0,0,0.1-0.1,0.1c0,0,0,0,0,0h0h0c0,0,0,0,0,0L58.5,25.3L58.5,25.3z
		 M59.4,29C59.4,29,59.3,29.1,59.4,29l-0.3,0.2c0,0,0,0-0.1,0c0,0,0,0-0.1,0.1c0,0,0,0,0,0l-0.1,0.1h0c0,0,0,0,0,0l-0.2,0.2
		c0,0-0.1,0.1-0.1,0.2c0,0,0.1,0.1,0.1,0l0.1-0.1c0,0,0,0,0,0c0,0,0,0,0,0c0.2-0.1,0.4-0.3,0.5-0.5C59.4,29.1,59.4,29.1,59.4,29z
		 M58.7,26.1L58.7,26.1C58.7,26.1,58.7,26.1,58.7,26.1L58.7,26.1C58.7,26.1,58.7,26.1,58.7,26.1z M58.7,32.3
		C58.7,32.3,58.7,32.4,58.7,32.3C58.7,32.4,58.7,32.4,58.7,32.3L58.7,32.3C58.7,32.4,58.7,32.3,58.7,32.3z M59.4,24.5
		c0,0-0.1,0.1-0.1,0.1h0c0,0,0,0,0,0C59.4,24.6,59.4,24.6,59.4,24.5c0.1,0,0.1,0,0.1-0.1C59.4,24.5,59.4,24.5,59.4,24.5z M59.5,26.6
		L59.5,26.6L59.5,26.6C59.5,26.7,59.5,26.7,59.5,26.6C59.6,26.7,59.6,26.7,59.5,26.6z M59.8,25.5L59.8,25.5c0,0.1,0.1,0.1,0.1,0.1
		c0,0,0.1,0.1,0.2,0.2h0c0,0,0,0,0,0v0l0,0c0,0,0,0,0,0c0,0,0-0.1-0.1-0.1c0,0-0.1,0-0.1,0C59.8,25.6,59.8,25.5,59.8,25.5z
		 M59.9,21.2L59.9,21.2l0.1,0.1v0L59.9,21.2C59.9,21.2,59.9,21.2,59.9,21.2C59.9,21.2,59.8,21.2,59.9,21.2L59.9,21.2L59.9,21.2z
		 M59.9,23.5L59.9,23.5c-0.1-0.1-0.1-0.1-0.1,0L59.9,23.5C59.9,23.5,59.9,23.5,59.9,23.5l0.2,0.2l0.2,0.2c0,0.1,0.1,0.1,0.1,0v0
		c0,0,0,0,0,0c0-0.1-0.1-0.2-0.1-0.2l0,0c0,0,0,0-0.1,0c0,0,0-0.1,0-0.1l-0.1,0C60,23.5,59.9,23.5,59.9,23.5z M60.1,21.4L60.1,21.4
		C60.1,21.4,60.1,21.4,60.1,21.4L60.1,21.4C60.1,21.4,60.1,21.4,60.1,21.4z M60.8,33.1c0,0-0.1-0.1-0.2-0.2l-0.2-0.2
		c0,0-0.1-0.1-0.1-0.1c0,0-0.1-0.1-0.1-0.1c0,0-0.1,0-0.1,0l0,0h0c0,0,0,0,0,0c0,0,0,0.1,0,0.1l0.1,0.1l0.2,0.1
		c0,0.1,0.1,0.1,0.1,0.2c0.1,0,0.1,0.1,0.1,0.1C60.7,33.1,60.7,33.1,60.8,33.1z M60.4,21.8c0,0.1,0.1,0.1,0.2,0.1v-0.1
		c0,0-0.1-0.1-0.1-0.1c0,0,0-0.1,0-0.1c0,0-0.1-0.1-0.2-0.1l-0.1,0.1C60.3,21.7,60.4,21.7,60.4,21.8z M60.4,24
		C60.4,24,60.4,24,60.4,24L60.4,24C60.4,24,60.4,24,60.4,24z M60.7,24.1L60.7,24.1c-0.1-0.1-0.1-0.1-0.1,0
		C60.6,24.2,60.7,24.2,60.7,24.1C60.7,24.2,60.7,24.2,60.7,24.1C60.7,24.2,60.7,24.1,60.7,24.1z M60.6,26.1L60.6,26.1L60.6,26.1
		C60.6,26.1,60.6,26.1,60.6,26.1z M60.9,20.9L60.9,20.9C60.9,20.9,60.9,20.9,60.9,20.9L60.9,20.9L60.9,20.9L60.9,20.9z M60.9,20.5
		c0,0.1,0,0.1,0,0.2l0,0C61,20.6,61,20.6,60.9,20.5h0.2c0,0,0,0,0,0l0,0C61.1,20.5,61,20.5,60.9,20.5z M61,25L61,25
		C61,25,61,25,61,25L61,25L61,25z M61,32.3L61,32.3L61,32.3C61,32.3,61,32.3,61,32.3z M61,18.6L61,18.6C61,18.6,61,18.6,61,18.6
		C61,18.6,61,18.6,61,18.6L61,18.6C61,18.6,61,18.6,61,18.6z M61,23C61,23,61,23,61,23C61.1,23.1,61.1,23,61,23L61,23
		C61.1,22.9,61,22.9,61,23z M61.5,31.7C61.5,31.7,61.5,31.7,61.5,31.7C61.5,31.7,61.5,31.8,61.5,31.7L61.5,31.7
		c-0.1,0.1-0.1,0.1-0.2,0.1l-0.1,0.1c0,0,0,0,0,0c0,0,0,0,0,0c0,0,0,0.1,0,0.1c0,0,0,0,0,0c0,0,0,0.1,0,0.1h0c0,0,0.1-0.1,0.2-0.2
		C61.3,31.9,61.4,31.8,61.5,31.7L61.5,31.7C61.5,31.7,61.5,31.7,61.5,31.7z M61.1,25.1L61.1,25.1L61.1,25.1L61.1,25.1z M61.3,22.7
		l-0.1,0.2c0,0.1,0.1,0.1,0.1,0l0-0.1C61.3,22.8,61.3,22.8,61.3,22.7c0.1,0.1,0.2,0,0.2,0c0,0,0.1-0.1,0.1-0.1
		c0.1-0.1,0.1-0.1,0.2-0.2c0,0,0,0,0,0c-0.1,0-0.2,0.1-0.2,0.2c0,0-0.1,0.1,0,0.1C61.4,22.6,61.3,22.6,61.3,22.7z M61.2,18.2
		C61.2,18.2,61.2,18.2,61.2,18.2L61.2,18.2C61.2,18.1,61.2,18.1,61.2,18.2C61.2,18.1,61.2,18.1,61.2,18.2L61.2,18.2L61.2,18.2z
		 M61.2,31.7C61.2,31.7,61.3,31.7,61.2,31.7C61.2,31.7,61.2,31.7,61.2,31.7z M61.2,20.6C61.2,20.6,61.2,20.6,61.2,20.6L61.2,20.6
		L61.2,20.6L61.2,20.6C61.2,20.6,61.2,20.6,61.2,20.6L61.2,20.6L61.2,20.6L61.2,20.6C61.3,20.6,61.2,20.6,61.2,20.6z M61.3,22.6
		L61.3,22.6L61.3,22.6L61.3,22.6C61.2,22.6,61.3,22.6,61.3,22.6z M61.3,18.3L61.3,18.3L61.3,18.3C61.3,18.3,61.3,18.3,61.3,18.3z
		 M61.4,20.4L61.4,20.4C61.3,20.5,61.3,20.5,61.4,20.4L61.4,20.4L61.4,20.4L61.4,20.4C61.4,20.4,61.4,20.4,61.4,20.4z M61.4,18
		C61.5,17.9,61.5,17.9,61.4,18L61.4,18L61.4,18L61.4,18z M61.6,20.2C61.6,20.2,61.6,20.2,61.6,20.2L61.6,20.2L61.6,20.2
		C61.6,20.2,61.6,20.2,61.6,20.2C61.5,20.2,61.5,20.2,61.6,20.2z M61.6,17.9c0,0,0.1-0.1,0.1-0.1C61.7,17.8,61.7,17.9,61.6,17.9
		C61.7,17.9,61.7,17.9,61.6,17.9z M61.8,20L61.8,20C61.8,20,61.8,20,61.8,20L61.8,20L61.8,20C61.8,20,61.8,20,61.8,20z M61.8,22.2
		L61.8,22.2L61.8,22.2L61.8,22.2C61.8,22.2,61.8,22.2,61.8,22.2z M62.1,33.4C62.1,33.4,62.1,33.3,62.1,33.4L62.1,33.4L62.1,33.4
		L62.1,33.4z M62.3,16.7c0,0-0.1,0-0.1,0C62.1,16.8,62.2,16.8,62.3,16.7c-0.1,0.1,0,0.1,0,0.1c0,0,0,0,0,0h0
		C62.3,16.8,62.3,16.8,62.3,16.7z M62.2,21.1L62.2,21.1L62.2,21.1C62.2,21.1,62.2,21.1,62.2,21.1L62.2,21.1
		C62.2,21.1,62.2,21.1,62.2,21.1z M62.3,19C62.3,19,62.3,19,62.3,19L62.3,19C62.3,19.1,62.3,19,62.3,19c0,0.1,0,0.1,0,0.1
		c0,0,0,0.1,0.1,0.1C62.4,19.2,62.4,19.1,62.3,19L62.3,19C62.4,19,62.4,19,62.3,19L62.3,19L62.3,19z M63.2,33
		c-0.2-0.2-0.3-0.4-0.5-0.5c-0.1-0.1-0.2-0.2-0.3-0.2c0,0.1,0.1,0.2,0.2,0.3c0.1,0.1,0.2,0.2,0.2,0.2l0.1,0c0,0,0,0,0,0
		c0.1,0.1,0.1,0.1,0.2,0.1C63.1,33,63.1,33,63.2,33C63.2,33,63.2,33,63.2,33z M62.4,17c0,0,0.1,0,0.1,0.1l0.1,0.1l0.1,0.1
		c0,0,0.1,0.1,0.1,0.1c0,0,0,0,0,0l0,0C62.7,17.1,62.6,17,62.4,17C62.4,16.9,62.4,16.9,62.4,17z M62.5,19.2
		C62.5,19.2,62.5,19.2,62.5,19.2L62.5,19.2L62.5,19.2z M62.8,19.5c0,0.1,0.1,0.1,0.1,0.1c0,0,0.1,0.1,0.2,0.1c0-0.1-0.1-0.1-0.1-0.1
		c0,0,0-0.1,0-0.1C62.9,19.5,62.8,19.5,62.8,19.5z M63.1,17.5C63,17.5,63,17.5,63.1,17.5L63.1,17.5l-0.1-0.2h-0.1
		C62.9,17.5,62.9,17.5,63.1,17.5z M63.3,18.7c0,0,0.1,0,0.1,0c0.1-0.1,0.2-0.1,0.2-0.2c0,0,0.1-0.1,0.2-0.2c0,0-0.1,0-0.1,0
		c0,0,0,0,0,0c0,0,0,0,0,0c-0.1,0.1-0.1,0.1-0.1,0.2C63.4,18.5,63.4,18.6,63.3,18.7z M64.7,32L64.7,32L64.7,32L64.7,32z M64.9,32.3
		L64.9,32.3C64.9,32.2,64.9,32.3,64.9,32.3L64.9,32.3C64.9,32.3,64.9,32.3,64.9,32.3z M65.2,32.5L65.2,32.5
		C65.2,32.4,65.1,32.5,65.2,32.5L65.2,32.5L65.2,32.5z M65.4,32.6C65.4,32.6,65.3,32.6,65.4,32.6L65.4,32.6c0,0,0,0,0,0.1L65.4,32.6
		L65.4,32.6z"/>
	<path class="st3" d="M87,16.7l-6.5,17c-0.1,0.2-0.2,0.3-0.4,0.3h-3.4c-0.3,0-0.4-0.1-0.3-0.4l1.9-4.9h-4.6l-1.9,5
		c-0.1,0.2-0.2,0.3-0.4,0.3H68c-0.3,0-0.4-0.1-0.3-0.4l5.7-14.9c0.6-1.6,1.8-2.4,3.5-2.4h9.8C87,16.3,87.1,16.4,87,16.7z M68.5,33.4
		L68.5,33.4c-0.1,0-0.1,0.1,0,0.1h0C68.5,33.4,68.5,33.4,68.5,33.4z M69.2,31.6C69.1,31.7,69.1,31.7,69.2,31.6L69,31.8
		c0,0-0.1,0-0.1,0.1c0,0,0,0,0,0.1c0,0-0.1,0-0.1,0l0,0.1c0,0,0,0,0,0l0,0c0,0-0.1,0-0.1,0c-0.1,0.1-0.1,0.1-0.1,0.1
		c0,0-0.1,0.1-0.1,0.1c0.1,0,0.1,0,0.1-0.1h0c0,0,0,0,0,0c0.1,0,0.1-0.1,0.2-0.2c0-0.1,0.1-0.1,0.2-0.2
		C69.1,31.9,69.2,31.8,69.2,31.6z M69.4,31.4L69.4,31.4L69.4,31.4C69.5,31.4,69.5,31.4,69.4,31.4L69.4,31.4L69.4,31.4z M69.6,33.5
		L69.6,33.5L69.6,33.5L69.6,33.5C69.6,33.6,69.6,33.6,69.6,33.5z M70.7,33.3c-0.1-0.1-0.3-0.3-0.4-0.4c-0.2-0.2-0.3-0.3-0.4-0.3v0.1
		c0,0,0,0,0,0c0,0,0,0,0,0c0,0,0,0,0.1,0l0.1,0.1c0,0,0.1,0.1,0.1,0.1c0,0,0,0.1,0.1,0.1c0.1,0,0.1,0.1,0.1,0.1c0,0,0.1,0.1,0.2,0
		v0.1c0,0,0,0,0,0c0,0,0,0,0,0C70.5,33.2,70.5,33.3,70.7,33.3C70.6,33.3,70.6,33.3,70.7,33.3C70.7,33.3,70.7,33.3,70.7,33.3z
		 M69.9,30.4c0,0.1,0.1,0.1,0.1,0.1c0.1,0,0.1,0.1,0.1,0.1h0.1C70.2,30.5,70.1,30.5,69.9,30.4C69.9,30.4,69.9,30.4,69.9,30.4z
		 M70.6,31.1c0,0,0.1,0.1,0.1,0.1c0-0.1-0.1-0.1-0.1-0.2c0,0-0.1-0.1-0.2-0.1c-0.1,0-0.1,0-0.1,0c0.1,0.1,0.1,0.2,0.1,0.2
		C70.5,31,70.5,31,70.6,31.1z M70.4,28.7L70.4,28.7L70.4,28.7l0.2,0.1c0,0,0,0,0,0c0,0,0,0,0,0C70.6,28.8,70.5,28.8,70.4,28.7
		C70.5,28.7,70.5,28.7,70.4,28.7c0-0.1,0-0.1,0-0.1C70.4,28.7,70.4,28.7,70.4,28.7z M70.4,31.1C70.4,31.1,70.4,31.1,70.4,31.1
		L70.4,31.1C70.5,31.1,70.5,31.1,70.4,31.1z M70.5,32.9C70.5,32.9,70.5,32.9,70.5,32.9L70.5,32.9C70.5,32.9,70.5,32.9,70.5,32.9z
		 M70.6,28.5c0,0-0.1,0-0.1-0.1c0.1,0.1,0.2,0.2,0.3,0.4l0.1,0c0,0,0,0,0.1,0v0c-0.1,0-0.1-0.1-0.1-0.2c0,0,0-0.1,0-0.1l0,0
		c0,0,0,0,0,0c0,0,0,0,0,0C70.7,28.6,70.6,28.5,70.6,28.5z M70.7,30.8c-0.1,0-0.1,0-0.2,0C70.6,30.9,70.6,30.9,70.7,30.8
		C70.7,30.9,70.7,30.9,70.7,30.8C70.8,30.8,70.8,30.8,70.7,30.8z M71,29.9C71,29.9,71,29.9,71,29.9l0.1-0.1c0.1-0.1,0.1-0.1,0-0.2
		H71v0.1c0,0-0.1,0-0.1,0c0,0,0,0,0,0C70.9,29.8,70.9,29.8,71,29.9C70.9,29.9,70.9,29.9,71,29.9l-0.1,0l0,0c0,0-0.1,0-0.1,0
		c0,0,0,0-0.1,0h0.1c0,0,0,0,0,0c0,0,0,0,0,0L71,29.9L71,29.9C71,29.9,71,29.9,71,29.9z M70.9,27.8C70.9,27.8,71,27.8,70.9,27.8
		C71,27.8,71,27.8,70.9,27.8L70.9,27.8c0.2-0.1,0.4-0.2,0.5-0.4c0.1-0.1,0.3-0.3,0.4-0.4l0,0c0,0,0,0,0,0c0,0,0,0-0.1,0L71.7,27
		c-0.2,0.2-0.5,0.5-0.7,0.7C71,27.7,71,27.8,70.9,27.8z M71,28L71,28L71,28L71,28C71.1,28,71.1,28,71,28C71,27.9,71,27.9,71,28
		C71,28,71,28,71,28z M71,31.4L71,31.4L71,31.4L71,31.4z M71.9,31.5L71.9,31.5l-0.1,0.1c0,0-0.1,0-0.1,0.1c-0.1,0.1-0.2,0.2-0.3,0.3
		c-0.1,0.1-0.2,0.2-0.3,0.3c0,0,0,0,0,0c0,0,0,0,0,0c0,0,0,0,0,0c0.1-0.1,0.3-0.2,0.4-0.4c0.1-0.1,0.1-0.2,0.3-0.3c0,0,0,0,0-0.1
		c0,0,0-0.1,0-0.1C71.8,31.5,71.8,31.5,71.9,31.5C71.9,31.5,71.9,31.5,71.9,31.5z M71.9,29.1c-0.1,0-0.1,0-0.2,0.1l-0.1,0.1
		c0,0-0.1,0.1-0.1,0.1c-0.1,0.1-0.2,0.2-0.2,0.2L71,30c0.1,0,0.2-0.1,0.2-0.1l0,0c0,0,0.1,0,0.1,0l0.1-0.1c0,0,0,0,0,0c0,0,0,0,0,0
		l0.1-0.1c0,0,0,0,0,0c0,0,0,0,0.1,0c0,0,0.1-0.1,0.1-0.1L71.9,29.1C71.9,29.2,71.9,29.2,71.9,29.1z M71.1,29.5
		C71.1,29.5,71.1,29.5,71.1,29.5l0.1-0.2c0,0,0-0.1,0,0l0,0C71.1,29.4,71.1,29.4,71.1,29.5z M71.4,31.6L71.4,31.6
		c0.1,0,0.1,0,0.1-0.1c-0.1,0-0.1-0.1-0.2,0c-0.1,0-0.1,0,0,0.1L71.4,31.6C71.4,31.5,71.4,31.5,71.4,31.6L71.4,31.6
		C71.4,31.5,71.5,31.6,71.4,31.6z M71.3,31.7c0,0,0.1,0,0.1-0.1C71.4,31.7,71.3,31.7,71.3,31.7z M71.8,24.8c0.1-0.1,0.1-0.1,0.1-0.2
		c0,0-0.1,0-0.1,0l-0.1,0.1C71.7,24.8,71.7,24.8,71.8,24.8z M72.1,23.5c0.1,0.2,0.2,0.3,0.4,0.4c0.1,0.1,0.3,0.2,0.4,0.3v-0.1
		c0,0,0,0,0-0.1c0,0,0-0.1,0-0.1l-0.1-0.1c-0.1-0.1-0.1-0.1-0.2-0.2c-0.1-0.1-0.1-0.1-0.2-0.2C72.3,23.5,72.2,23.5,72.1,23.5z
		 M72.2,25.7L72.2,25.7L72.2,25.7c0.1,0.1,0.1,0.1,0.1,0.1l0,0c0,0,0,0,0,0c0,0,0,0.1,0.1,0.1c0,0,0.1,0.1,0.2,0.2l0.1,0.1
		c0,0,0,0,0,0c0,0,0,0,0,0c0.1,0.1,0.1,0.1,0.2,0.2c0.1,0.1,0.1,0.1,0.2,0.2c0,0,0.1,0,0.1,0l-0.1-0.1l-0.1-0.1l-0.4-0.4l-0.1-0.1
		c0,0-0.1-0.1-0.1-0.1c0,0-0.1,0-0.1,0C72.2,25.7,72.2,25.7,72.2,25.7z M72.9,28.6C72.8,28.6,72.8,28.5,72.9,28.6l-0.1-0.2l-0.1-0.1
		c-0.1,0-0.1-0.1-0.2-0.1c-0.1,0-0.1-0.1-0.1-0.1c0,0-0.1,0-0.1,0h0c0,0,0,0,0,0c0,0-0.1,0-0.1,0c0,0.1,0.1,0.1,0.1,0.2
		c0.1,0.1,0.2,0.3,0.3,0.4c0,0,0.1,0.1,0.1,0.1C72.8,28.6,72.8,28.6,72.9,28.6C72.8,28.6,72.8,28.6,72.9,28.6
		C72.8,28.6,72.8,28.6,72.9,28.6z M72.4,30.3c0,0-0.1,0-0.1-0.1c0,0,0,0,0,0c0,0,0,0,0,0v0C72.3,30.4,72.4,30.4,72.4,30.3z M73,28.7
		c-0.1,0-0.1-0.1-0.1-0.1C72.9,28.7,72.9,28.7,73,28.7c0,0.1,0,0.1,0,0.2c0,0,0,0,0,0v0C73.1,28.7,73.1,28.7,73,28.7z M73,24.4
		C73,24.4,73.1,24.4,73,24.4L73,24.4C73.1,24.4,73.1,24.3,73,24.4L73,24.4C73,24.4,73,24.4,73,24.4z M73.1,28.2L73.1,28.2L73.1,28.2
		L73.1,28.2z M73.2,25.5L73.2,25.5L73.2,25.5C73.2,25.5,73.2,25.5,73.2,25.5z M73.2,27.1L73.2,27.1L73.2,27.1L73.2,27.1L73.2,27.1
		L73.2,27.1L73.2,27.1z M74.3,26.9c-0.1,0-0.2,0.1-0.3,0.2c0,0,0,0,0,0.1c0,0,0,0-0.1,0c0,0-0.1,0.1-0.1,0.1v0
		c-0.1,0-0.1,0.1-0.1,0.2v0.1c0,0,0,0,0,0l0,0c0,0,0,0,0,0c0,0,0,0,0,0l-0.1,0v-0.1c0,0-0.1,0.1-0.1,0.1c0,0,0,0.1-0.1,0.1l0.1,0.1
		c0,0,0,0,0,0c0.1,0,0.1,0,0.1-0.1h0c0,0,0,0,0,0h0c0,0,0.1-0.1,0.2-0.1c0,0,0,0,0,0l0.5-0.5c0,0,0,0,0,0
		C74.3,27,74.3,26.9,74.3,26.9z M73.3,23.3L73.3,23.3c0.2-0.1,0.3-0.2,0.5-0.4c0.1-0.1,0.3-0.3,0.4-0.5c0,0,0-0.1,0-0.1
		c-0.1,0-0.1,0,0,0.1c0,0-0.1,0-0.1,0c-0.1,0.1-0.2,0.2-0.2,0.2l-0.1,0.1c0,0,0,0.1-0.1,0.1c-0.1,0.1-0.1,0.1-0.2,0.2
		C73.4,23.2,73.4,23.2,73.3,23.3C73.3,23.3,73.3,23.3,73.3,23.3z M73.4,25.5C73.3,25.5,73.3,25.5,73.4,25.5L73.4,25.5
		c0.1,0,0.1,0,0.2,0c0.1-0.1,0.1-0.1,0.2-0.1c0,0,0.1-0.1,0.1-0.1h0c0,0,0,0,0-0.1v0l0.1-0.1c0,0,0,0,0-0.1c-0.1,0-0.1,0-0.1,0
		c0,0-0.1,0.1-0.1,0.1l0.1,0.1c-0.1,0-0.2,0-0.3,0h0l0,0v0c0,0,0,0.1-0.1,0.1c0,0,0,0,0,0h0h0c0,0,0,0,0,0L73.4,25.5L73.4,25.5z
		 M73.3,22.4L73.3,22.4L73.3,22.4L73.3,22.4C73.3,22.5,73.3,22.5,73.3,22.4z M73.4,21.1c0.1,0,0.2-0.1,0.2-0.2
		c0.1-0.1,0.1-0.1,0.2-0.2c0,0,0,0,0,0l0,0l0.1-0.1l0,0l0.1-0.1c0,0,0,0,0-0.1c0,0,0.1,0,0.1-0.1c0,0,0,0,0,0c0,0-0.1,0-0.1,0
		c0,0,0,0,0,0l-0.1,0c-0.1,0.1-0.1,0.2-0.1,0.2c0,0,0,0,0,0c0,0,0,0,0,0c0,0,0,0,0,0c-0.1,0.1-0.1,0.1-0.2,0.2
		C73.5,20.8,73.4,20.9,73.4,21.1C73.4,21,73.4,21,73.4,21.1C73.3,21,73.3,21,73.4,21.1z M73.5,22.3C73.5,22.3,73.5,22.3,73.5,22.3
		L73.5,22.3C73.5,22.4,73.5,22.4,73.5,22.3l0,0.1L73.5,22.3C73.5,22.3,73.5,22.3,73.5,22.3z M73.5,26.3L73.5,26.3
		C73.6,26.3,73.6,26.3,73.5,26.3L73.5,26.3C73.5,26.3,73.5,26.3,73.5,26.3z M74.2,24.7c0,0-0.1,0.1-0.1,0.1h0c0,0,0,0,0,0
		C74.2,24.8,74.2,24.7,74.2,24.7c0.1,0,0.1,0,0.1-0.1C74.3,24.6,74.2,24.7,74.2,24.7z M74.3,20.5L74.3,20.5L74.3,20.5L74.3,20.5
		L74.3,20.5z M74.4,26.8L74.4,26.8L74.4,26.8C74.4,26.8,74.4,26.8,74.4,26.8C74.4,26.8,74.4,26.8,74.4,26.8z M74.7,21.4
		C74.7,21.4,74.7,21.3,74.7,21.4L74.7,21.4L74.7,21.4l0,0.1h0.1v0L74.7,21.4C74.7,21.4,74.7,21.4,74.7,21.4z M74.8,19.2
		C74.8,19.3,74.8,19.3,74.8,19.2L74.8,19.2C74.8,19.2,74.8,19.2,74.8,19.2z M74.9,19.4L74.9,19.4C75,19.5,75,19.5,74.9,19.4
		C75,19.5,75,19.5,74.9,19.4L74.9,19.4L74.9,19.4v-0.1C74.9,19.4,74.9,19.4,74.9,19.4z M74.9,21.6L74.9,21.6
		C75,21.6,75,21.5,74.9,21.6L74.9,21.6C74.9,21.5,74.9,21.6,74.9,21.6z M81.5,19.2h-3.9c-0.2,0-0.3,0.1-0.4,0.3L75,25.4
		c-0.1,0.3,0,0.4,0.3,0.4h3.9c0.2,0,0.3-0.1,0.4-0.3l2.2-5.9C81.9,19.4,81.8,19.2,81.5,19.2z M75.1,19.6l0.2,0.2
		c0,0,0.1,0.1,0.2,0.1c0-0.1-0.1-0.2-0.1-0.2L75.1,19.6L75.1,19.6C75.1,19.5,75.1,19.6,75.1,19.6z M75.4,21.9
		C75.4,21.9,75.3,21.9,75.4,21.9c-0.1-0.1-0.1-0.2-0.2-0.2l-0.1,0.1c0.1,0,0.1,0.1,0.2,0.2c0,0.1,0.1,0.1,0.2,0.1L75.4,21.9
		C75.4,22,75.4,22,75.4,21.9z M75.3,17.6C75.3,17.6,75.3,17.6,75.3,17.6L75.3,17.6C75.4,17.6,75.4,17.6,75.3,17.6
		C75.3,17.6,75.3,17.6,75.3,17.6C75.3,17.6,75.3,17.6,75.3,17.6z M75.7,21.1L75.7,21.1C75.8,21,75.8,21,75.7,21.1L75.7,21.1
		L75.7,21.1L75.7,21.1z M75.8,20.7c0,0.1,0,0.1,0,0.2l0,0C75.8,20.8,75.8,20.8,75.8,20.7h0.2c0,0,0,0,0,0l0,0
		C75.9,20.6,75.9,20.7,75.8,20.7z M75.9,27.7C75.9,27.7,75.8,27.7,75.9,27.7l-0.1,0.1C75.8,27.8,75.9,27.7,75.9,27.7z M75.9,18.7
		L75.9,18.7C75.8,18.7,75.8,18.7,75.9,18.7C75.8,18.7,75.8,18.7,75.9,18.7L75.9,18.7C75.8,18.8,75.8,18.7,75.9,18.7z M76.3,27.2
		c-0.2,0.2-0.3,0.4-0.4,0.5l0.1-0.1l0,0c0,0,0,0,0,0c0,0,0,0,0,0l0.1,0c0.1-0.1,0.1-0.1,0.2-0.2c0.1-0.1,0.1-0.1,0.2-0.2
		c0,0,0.1-0.1,0.1-0.1l0.1-0.1v-0.1C76.7,26.8,76.5,27,76.3,27.2z M76,18.3C76.1,18.3,76.1,18.3,76,18.3L76,18.3
		C76.1,18.3,76.1,18.3,76,18.3C76,18.3,76,18.3,76,18.3L76,18.3L76,18.3z M76.1,20.7L76.1,20.7L76.1,20.7L76.1,20.7
		C76.1,20.7,76.1,20.7,76.1,20.7C76.1,20.7,76.1,20.7,76.1,20.7L76.1,20.7L76.1,20.7L76.1,20.7C76.1,20.7,76.1,20.7,76.1,20.7z
		 M76.2,26.6L76.2,26.6C76.2,26.7,76.2,26.7,76.2,26.6L76.2,26.6C76.2,26.6,76.2,26.6,76.2,26.6L76.2,26.6
		C76.1,26.6,76.1,26.6,76.2,26.6z M76.2,18.5L76.2,18.5L76.2,18.5C76.2,18.5,76.2,18.5,76.2,18.5z M76.2,20.6L76.2,20.6
		C76.2,20.6,76.2,20.6,76.2,20.6L76.2,20.6L76.2,20.6L76.2,20.6C76.2,20.6,76.2,20.6,76.2,20.6z M76.3,18.1
		C76.3,18.1,76.3,18.1,76.3,18.1L76.3,18.1L76.3,18.1L76.3,18.1z M76.4,20.4C76.4,20.4,76.4,20.4,76.4,20.4L76.4,20.4L76.4,20.4
		C76.4,20.3,76.4,20.3,76.4,20.4C76.4,20.4,76.4,20.4,76.4,20.4z M76.5,18.1c0,0,0.1-0.1,0.1-0.1C76.6,18,76.6,18,76.5,18.1
		C76.5,18.1,76.5,18.1,76.5,18.1z M77.1,16.9c0,0-0.1,0-0.1,0C77,16.9,77,16.9,77.1,16.9c-0.1,0.1,0,0.1,0,0.1c0,0,0,0,0,0h0
		C77.2,17,77.1,16.9,77.1,16.9z M77.2,17.2c0,0,0.1,0,0.1,0.1l0.1,0.1l0.1,0.1c0,0,0.1,0.1,0.1,0.1c0,0,0,0,0,0l0,0
		C77.5,17.3,77.4,17.2,77.2,17.2C77.3,17.1,77.2,17.1,77.2,17.2z M77.5,27.3C77.5,27.3,77.4,27.3,77.5,27.3
		C77.4,27.3,77.4,27.3,77.5,27.3C77.4,27.4,77.4,27.4,77.5,27.3L77.5,27.3C77.4,27.4,77.4,27.4,77.5,27.3z M77.9,17.7
		C77.9,17.7,77.9,17.6,77.9,17.7L77.9,17.7l-0.1-0.2h-0.1C77.7,17.6,77.8,17.7,77.9,17.7z M79.1,26.9C79.1,26.9,79,26.9,79.1,26.9
		l-0.2,0.1c-0.1,0.1-0.1,0.1-0.2,0.2l-0.2,0.2c0,0-0.1,0.1-0.1,0.1l-0.1,0.1v0h0.1c0,0,0,0,0.1,0c0,0,0.1-0.1,0.2-0.2
		c0.1,0,0.1-0.1,0.1-0.2c0,0,0,0,0,0c0.1,0,0.1-0.1,0.2-0.1c0,0,0.1-0.1,0.1-0.1C79.1,27,79.1,27,79.1,26.9z M79.3,31.3L79.3,31.3
		C79.3,31.3,79.2,31.3,79.3,31.3l-0.1,0c-0.1,0.1-0.2,0.1-0.2,0.2l-0.2,0.2c-0.1,0.1-0.1,0.1-0.2,0.2l-0.2,0.2c0,0,0,0.1,0,0.1
		c0.1,0,0.1-0.1,0.2-0.1c0.1-0.1,0.2-0.2,0.3-0.3c0.1-0.1,0.2-0.2,0.2-0.2l0.1-0.1C79.2,31.5,79.2,31.4,79.3,31.3
		C79.3,31.4,79.3,31.3,79.3,31.3z M78.7,18.2c0,0-0.1,0.1-0.1,0.1c0,0,0,0,0,0L78.7,18.2h0.1v-0.1C78.8,18.1,78.8,18.2,78.7,18.2z
		 M78.8,29.4L78.8,29.4L78.8,29.4L78.8,29.4C78.9,29.4,78.9,29.4,78.8,29.4z M79,29.4L79,29.4L79,29.4L79,29.4
		C79,29.4,79,29.4,79,29.4z M79,18.1L79,18.1L79,18.1L79,18.1z M79,18.1L79,18.1C79,18.1,79,18.1,79,18.1C79,18.1,79,18.1,79,18.1
		L79,18.1C79,18.1,79,18.1,79,18.1z M79.2,29.1C79.1,29.1,79.1,29.1,79.2,29.1c0,0.1,0,0.1,0,0.1H79v0h0c0,0,0,0,0,0
		c0,0,0.1,0,0.1,0C79.2,29.2,79.2,29.2,79.2,29.1C79.2,29.1,79.2,29.1,79.2,29.1C79.2,29.1,79.2,29.1,79.2,29.1l0.1,0
		C79.3,29.1,79.3,29.1,79.2,29.1L79.2,29.1L79.2,29.1C79.2,29.1,79.2,29.1,79.2,29.1z M79.2,27.2L79.2,27.2
		C79.3,27.2,79.2,27.2,79.2,27.2C79.1,27.2,79.2,27.2,79.2,27.2z M79.4,16.9L79.4,16.9L79.4,16.9L79.4,16.9
		C79.4,16.8,79.4,16.8,79.4,16.9C79.4,16.8,79.4,16.9,79.4,16.9z M79.5,32.2L79.5,32.2L79.5,32.2L79.5,32.2z M79.7,30.1
		C79.7,30.2,79.7,30.2,79.7,30.1C79.6,30.2,79.7,30.2,79.7,30.1L79.7,30.1L79.7,30.1z M79.8,32.4L79.8,32.4
		C79.7,32.4,79.7,32.4,79.8,32.4L79.8,32.4C79.8,32.5,79.8,32.4,79.8,32.4z M79.9,30.5C80,30.5,80,30.5,79.9,30.5L79.9,30.5
		L79.9,30.5l-0.2-0.2l0,0l0.1,0.1L79.9,30.5C79.9,30.4,79.9,30.5,79.9,30.5z M79.8,17.3L79.8,17.3L79.8,17.3
		C79.9,17.3,79.9,17.3,79.8,17.3C79.9,17.3,79.9,17.3,79.8,17.3C79.9,17.2,79.9,17.2,79.8,17.3C79.9,17.2,79.8,17.2,79.8,17.3
		L79.8,17.3L79.8,17.3z M79.8,28.1L79.8,28.1L79.8,28.1L79.8,28.1L79.8,28.1z M80.1,28.4L80.1,28.4c0,0.1,0,0.1,0.1,0.1v0
		c0,0.1,0.1,0.1,0.1,0c0,0,0,0,0-0.1c0,0,0,0,0,0c0,0,0,0,0,0c-0.1-0.1-0.2-0.2-0.2-0.2c0,0,0,0,0,0s0,0-0.1,0c0,0,0,0.1,0,0.2
		L80.1,28.4C80.1,28.4,80.1,28.4,80.1,28.4z M80.1,32.6L80.1,32.6C80,32.6,80,32.6,80.1,32.6L80.1,32.6L80.1,32.6z M80,17.3
		c0,0.1,0.1,0.2,0.1,0.2l0,0c0,0,0,0,0,0C80.1,17.4,80.1,17.4,80,17.3z M80.2,30.6L80.2,30.6L80.2,30.6L80.2,30.6c0-0.1,0-0.1,0-0.1
		L80.2,30.6C80.1,30.6,80.1,30.6,80.2,30.6L80.2,30.6L80.2,30.6z M80.4,30.8c0-0.1-0.1-0.1-0.1-0.1l0,0l0,0l0.1,0.1H80.4L80.4,30.8
		C80.4,30.8,80.4,30.8,80.4,30.8z M80.2,32.8C80.2,32.8,80.2,32.8,80.2,32.8L80.2,32.8c0,0,0,0,0,0.1L80.2,32.8L80.2,32.8z
		 M80.2,17.6C80.2,17.6,80.2,17.6,80.2,17.6l0.1,0.1c0,0,0.1,0,0.1,0v0c0,0,0,0,0,0l0,0v-0.1c0,0,0,0,0,0l0,0c0,0,0,0,0,0
		C80.3,17.6,80.3,17.6,80.2,17.6z M80.8,25.4L80.8,25.4C80.9,25.4,80.9,25.4,80.8,25.4C80.8,25.4,80.8,25.4,80.8,25.4
		C80.8,25.4,80.8,25.4,80.8,25.4L80.8,25.4c-0.1,0-0.1,0-0.1,0C80.8,25.5,80.8,25.4,80.8,25.4z M81,27.5
		C80.9,27.5,80.9,27.5,81,27.5c-0.1,0-0.1,0-0.1,0c0,0,0,0.1,0,0.1v0c0,0,0,0,0.1,0L81,27.5C80.9,27.6,80.9,27.6,81,27.5L81,27.5z
		 M80.9,25.2C80.9,25.3,81,25.3,80.9,25.2c0.1,0,0.1,0,0.1,0c0,0,0,0,0.1-0.1c0,0,0,0,0,0L81.1,25c0,0,0,0,0,0c0,0,0,0,0,0
		c0,0,0,0,0,0L80.9,25.2L80.9,25.2z M81,27.5C81,27.5,81,27.5,81,27.5c0.1-0.1,0.1-0.1,0.1-0.1c0,0-0.1,0-0.1,0
		C81,27.4,81,27.4,81,27.5L81,27.5C81,27.5,81,27.5,81,27.5z M81.1,22.9C81.1,22.9,81,22.9,81.1,22.9L81,23l0,0L81.1,22.9
		c0.1,0,0.1,0,0.1,0C81.2,22.8,81.2,22.8,81.1,22.9c0.1-0.1,0.1-0.1,0-0.1C81.1,22.8,81.1,22.8,81.1,22.9
		C81.1,22.9,81.1,22.9,81.1,22.9z M81,29.7L81,29.7C81,29.7,81,29.8,81,29.7L81,29.7L81,29.7L81,29.7z M81.4,29.4
		C81.5,29.4,81.5,29.3,81.4,29.4c0.1-0.1,0-0.1,0-0.1h0c0,0-0.1,0.1-0.1,0.1c0,0,0,0-0.1,0c-0.1,0-0.1,0.1-0.1,0.2
		c0,0,0,0.1,0.1,0.1C81.3,29.6,81.3,29.5,81.4,29.4C81.4,29.5,81.4,29.4,81.4,29.4z M81.3,25C81.2,25,81.2,25,81.3,25L81.3,25
		L81.3,25L81.3,25z M81.3,24.9c0,0.1,0.1,0.1,0.1,0c0,0,0.1-0.1,0.1-0.1c0.1-0.1,0.1-0.1,0.1-0.1c0,0,0-0.1,0-0.1
		c-0.1,0-0.2,0.1-0.2,0.1C81.4,24.8,81.3,24.8,81.3,24.9z M81.3,22.6c0,0,0,0.1,0,0.1c0.1,0,0.1-0.1,0.1-0.1
		C81.4,22.6,81.4,22.6,81.3,22.6C81.3,22.6,81.3,22.6,81.3,22.6z M81.8,26.7C81.7,26.7,81.7,26.7,81.8,26.7
		C81.7,26.7,81.7,26.7,81.8,26.7l-0.2,0.2l0,0c0,0,0,0,0,0C81.7,26.9,81.7,26.8,81.8,26.7z M81.8,16.8c0,0.1,0.1,0.1,0.1,0.1
		c0,0,0.1,0.1,0.1,0.1c0.1,0.1,0.1,0.1,0.2,0.2c0.1,0.1,0.1,0.1,0.2,0.2c0,0,0.1,0.1,0.1,0.1c0-0.1,0-0.1-0.1-0.2
		c-0.1-0.1-0.1-0.1-0.2-0.2C82.2,17,82.1,17,82,16.9C81.9,16.8,81.9,16.8,81.8,16.8z M82,21.3L82,21.3L82,21.3
		C82.1,21.4,82.1,21.4,82,21.3l0.1,0.1h0.1c0,0,0,0,0,0c0,0,0,0,0,0l0,0C82.1,21.4,82.1,21.4,82,21.3c0.1,0,0-0.1,0-0.1
		c0,0-0.1,0-0.1,0C81.9,21.3,82,21.3,82,21.3z M82,23.5C82,23.5,82.1,23.5,82,23.5L82,23.5C82.1,23.4,82,23.4,82,23.5L82,23.5
		C82,23.5,82,23.5,82,23.5z M82.2,25.8c0,0,0-0.1,0-0.1c0,0-0.1,0-0.1,0c0,0,0,0,0,0C82.1,25.8,82.2,25.8,82.2,25.8
		C82.2,25.9,82.2,25.9,82.2,25.8L82.2,25.8C82.3,25.8,82.2,25.8,82.2,25.8z M82.3,23.6c0,0-0.1-0.1-0.1-0.1c0,0-0.1,0-0.1,0s0,0,0,0
		C82.1,23.7,82.2,23.7,82.3,23.6C82.3,23.7,82.3,23.7,82.3,23.6z M82.3,21.5C82.3,21.5,82.3,21.5,82.3,21.5l0-0.1
		C82.2,21.5,82.3,21.5,82.3,21.5z M82.4,26c0,0,0-0.1,0-0.1l0,0l0,0C82.3,26,82.3,26,82.4,26C82.3,26,82.4,26,82.4,26
		C82.4,26.1,82.4,26.1,82.4,26C82.5,26.1,82.5,26.1,82.4,26L82.4,26C82.5,26,82.4,26,82.4,26z M82.5,21.8c0-0.1,0-0.1,0-0.1
		c0,0,0,0-0.1-0.1l0,0c0,0,0,0.1,0,0.1C82.4,21.7,82.5,21.8,82.5,21.8z M82.5,23.8C82.4,23.7,82.4,23.7,82.5,23.8
		c-0.1,0.1-0.1,0.1,0,0.1C82.5,23.9,82.5,23.8,82.5,23.8z M82.7,21.9c0,0-0.1,0-0.2,0L82.7,21.9c0,0.1,0,0.1,0.1,0.2
		C82.8,22,82.7,21.9,82.7,21.9z M82.8,24.1c0-0.1-0.1-0.1-0.2-0.1c0,0,0,0.1,0,0.1C82.6,24.1,82.7,24.2,82.8,24.1l0.1,0.2
		c0,0,0,0,0,0h0C82.9,24.2,82.8,24.1,82.8,24.1z M82.7,17.7C82.7,17.7,82.7,17.7,82.7,17.7c0.1,0.1,0.1,0.1,0.1,0.1
		C82.8,17.7,82.8,17.7,82.7,17.7C82.7,17.6,82.7,17.6,82.7,17.7z M83.1,23.2c0,0-0.1,0-0.1,0.1c0,0,0,0,0,0
		C83.1,23.3,83.1,23.3,83.1,23.2z M83.1,17.8L83.1,17.8L83.1,17.8L83.1,17.8z M83.3,23.1C83.3,23.1,83.3,23,83.3,23.1L83.3,23.1
		c-0.1,0-0.1,0.1-0.1,0.1C83.2,23.2,83.2,23.2,83.3,23.1z M83.5,18.5L83.5,18.5C83.5,18.4,83.5,18.4,83.5,18.5
		c0.1-0.1,0.1-0.1,0-0.2C83.4,18.3,83.4,18.4,83.5,18.5C83.4,18.5,83.4,18.5,83.5,18.5z M83.5,20.7c0,0,0.1-0.1,0.1-0.1l0,0
		C83.5,20.5,83.5,20.6,83.5,20.7z M84.1,22.3L84.1,22.3C84,22.3,84,22.4,84.1,22.3c-0.1,0.1-0.1,0.1-0.2,0.1c0,0-0.1,0.1,0,0.2
		c0,0,0-0.1-0.1-0.1c0,0-0.1,0.1-0.1,0c0,0.1,0,0.1-0.1,0.1l-0.1,0c0,0,0,0.1,0,0.1c0.1,0,0.1,0,0.1-0.1c0.1-0.1,0.1-0.1,0.2-0.1
		c0,0,0,0,0,0C83.9,22.5,83.9,22.5,84.1,22.3L84.1,22.3L84.1,22.3z M83.6,18.3c0.1-0.1,0.1-0.1,0.2-0.2c0.1,0,0.1-0.1,0.1-0.2
		c-0.1,0.1-0.2,0.1-0.3,0.2C83.6,18.2,83.6,18.2,83.6,18.3z M83.8,20.2c0,0-0.1,0.1-0.1,0.2c0,0,0,0,0,0c0,0,0,0,0,0l0,0
		c0.1-0.1,0.1-0.2,0.2-0.2c0,0,0,0,0-0.1c0,0,0,0,0-0.1C83.9,20.1,83.9,20.1,83.8,20.2z M84.8,17.2c-0.1-0.1-0.3-0.2-0.4-0.3
		c-0.1,0-0.1-0.1-0.1-0.1c0,0-0.1,0-0.1,0s0,0,0,0c0,0,0,0,0,0s0,0,0,0l0.2,0.2c0,0,0.1,0.1,0.1,0.1c0,0,0.1,0.1,0.1,0.1
		c0.1,0.1,0.2,0.2,0.4,0.3h0c0,0,0,0,0,0v0C85,17.4,84.9,17.3,84.8,17.2z M85,19.5C85,19.5,85,19.5,85,19.5
		c-0.1-0.1-0.1-0.1-0.2-0.1c0,0.1,0,0.1,0,0.2L85,19.5c0,0.1,0,0.1,0,0.1c0,0,0,0,0,0h0C85,19.6,85,19.6,85,19.5z"/>
	<path class="st1" d="M94.9,31.4L94,33.7c-0.1,0.2-0.2,0.3-0.4,0.3h-8.2c-0.9,0-1.4-0.2-1.7-0.7c-0.3-0.5-0.3-1.2,0-2l5.6-14.7
		c0.1-0.2,0.2-0.3,0.4-0.3h3.4c0.3,0,0.4,0.1,0.3,0.4L87.9,31h6.7C94.9,31,95,31.1,94.9,31.4z M84.5,31.2L84.5,31.2L84.5,31.2
		L84.5,31.2z M85.4,31.3L85.4,31.3l-0.1,0.1c0,0-0.1,0-0.1,0.1c-0.1,0.1-0.2,0.2-0.3,0.3c-0.1,0.1-0.2,0.2-0.3,0.3c0,0,0,0,0,0
		c0,0,0,0,0,0c0,0,0,0,0,0c0.1-0.1,0.3-0.2,0.4-0.4c0.1-0.1,0.1-0.2,0.3-0.3c0,0,0,0,0-0.1c0,0,0-0.1,0-0.1
		C85.3,31.4,85.3,31.4,85.4,31.3C85.4,31.3,85.4,31.3,85.4,31.3z M84.8,31.4L84.8,31.4C84.9,31.4,84.9,31.4,84.8,31.4L84.8,31.4
		c0.1,0,0.1,0,0.1,0.1v0c0.1,0,0.1-0.1,0.1-0.1C85,31.3,84.9,31.3,84.8,31.4C84.8,31.3,84.8,31.3,84.8,31.4z M84.8,31.6
		c0,0,0.1,0,0.1-0.1C84.9,31.5,84.8,31.5,84.8,31.6z M86.1,28.3C86.2,28.4,86.2,28.4,86.1,28.3c0.1,0.1,0.1,0.1,0.1,0.1c0,0,0,0,0,0
		c0,0,0,0,0,0c0,0,0,0,0-0.1l-0.1-0.1l-0.1-0.1c-0.1,0-0.1-0.1-0.2-0.1c-0.1,0-0.1-0.1-0.1-0.1c0,0-0.1,0-0.1,0h0c0,0,0,0,0,0
		c0,0-0.1,0-0.1,0c0,0.1,0.1,0.1,0.1,0.2C85.9,28.1,86,28.2,86.1,28.3z M85.8,32.3L85.8,32.3L85.8,32.3L85.8,32.3
		C85.8,32.3,85.8,32.3,85.8,32.3z M85.9,30.2c0,0-0.1,0-0.1-0.1c0,0,0,0,0,0c0,0,0,0,0,0v0C85.8,30.2,85.9,30.2,85.9,30.2z
		 M86.7,30.9c-0.1-0.1-0.2-0.2-0.3-0.4c-0.1-0.1-0.3-0.2-0.4-0.3c0,0.1,0,0.2,0,0.1c0,0.1,0,0.1,0.1,0.1c0,0,0.1,0.1,0.1,0.1
		c0.1,0.1,0.1,0.1,0.2,0.2S86.5,30.9,86.7,30.9C86.6,30.9,86.7,30.9,86.7,30.9z M86.4,28.4c0,0.1,0,0.1,0.1,0.1c0,0,0.1,0.1,0.1,0.1
		c0,0,0,0,0,0v0c0,0,0-0.1-0.1-0.1C86.5,28.5,86.4,28.4,86.4,28.4z M86.4,33L86.4,33L86.4,33C86.5,33,86.5,33,86.4,33z M86.5,33
		L86.5,33L86.5,33L86.5,33z M86.6,28.1L86.6,28.1L86.6,28.1L86.6,28.1z M86.7,25.3L86.7,25.3L86.7,25.3
		C86.7,25.3,86.7,25.3,86.7,25.3z M86.7,27L86.7,27L86.7,27L86.7,27L86.7,27L86.7,27L86.7,27z M86.8,30.8L86.8,30.8
		C86.7,30.8,86.7,30.8,86.8,30.8L86.8,30.8L86.8,30.8C86.8,30.8,86.8,30.8,86.8,30.8z M87.8,26.7c-0.1,0-0.2,0.1-0.3,0.2
		c0,0,0,0,0,0.1c0,0,0,0-0.1,0c0,0-0.1,0.1-0.1,0.1v0c-0.1,0-0.1,0.1-0.1,0.2v0.1c0,0,0,0,0,0l0,0c0,0,0,0,0,0c0,0,0,0,0,0l-0.1,0
		v-0.1c0,0-0.1,0.1-0.1,0.1c0,0,0,0.1-0.1,0.1l0.1,0.1c0,0,0,0,0,0c0.1,0,0.1,0,0.1-0.1h0c0,0,0,0,0,0h0c0,0,0.1-0.1,0.2-0.1
		c0,0,0,0,0,0l0.5-0.5c0,0,0,0,0,0C87.8,26.8,87.8,26.8,87.8,26.7z M86.9,25.3C86.8,25.4,86.8,25.4,86.9,25.3L86.9,25.3
		c0.1,0,0.1,0,0.2,0c0.1-0.1,0.1-0.1,0.2-0.1c0,0,0.1-0.1,0.1-0.1h0c0,0,0,0,0-0.1v0l0.1-0.1c0,0,0,0,0-0.1c-0.1,0-0.1,0-0.1,0
		c0,0-0.1,0.1-0.1,0.1l0.1,0.1c-0.1,0-0.2,0-0.3,0h0l0,0v0c0,0,0,0.1-0.1,0.1c0,0,0,0,0,0h0h0c0,0,0,0,0,0L86.9,25.3L86.9,25.3z
		 M87.7,29C87.7,29,87.7,29.1,87.7,29l-0.3,0.2c0,0,0,0-0.1,0c0,0,0,0-0.1,0.1c0,0,0,0,0,0l-0.1,0.1h0c0,0,0,0,0,0L87,29.7
		c0,0-0.1,0.1-0.1,0.2c0,0,0.1,0.1,0.1,0l0.1-0.1c0,0,0,0,0,0c0,0,0,0,0,0c0.2-0.1,0.4-0.3,0.5-0.5C87.7,29.1,87.8,29.1,87.7,29z
		 M87,26.1L87,26.1C87.1,26.1,87.1,26.1,87,26.1L87,26.1C87,26.1,87,26.1,87,26.1z M87,32.3C87,32.3,87,32.4,87,32.3
		C87,32.4,87,32.4,87,32.3L87,32.3C87.1,32.4,87,32.3,87,32.3z M87.7,24.5c0,0-0.1,0.1-0.1,0.1h0c0,0,0,0,0,0
		C87.7,24.6,87.7,24.6,87.7,24.5c0.1,0,0.1,0,0.1-0.1C87.8,24.5,87.7,24.5,87.7,24.5z M87.9,26.6L87.9,26.6L87.9,26.6
		C87.9,26.7,87.9,26.7,87.9,26.6C87.9,26.7,87.9,26.7,87.9,26.6z M88.1,25.5L88.1,25.5c0,0.1,0.1,0.1,0.1,0.1c0,0,0.1,0.1,0.2,0.2h0
		c0,0,0,0,0,0v0l0,0c0,0,0,0,0,0c0,0,0-0.1-0.1-0.1c0,0-0.1,0-0.1,0C88.2,25.6,88.1,25.5,88.1,25.5z M88.2,21.2L88.2,21.2l0.1,0.1v0
		L88.2,21.2C88.2,21.2,88.2,21.2,88.2,21.2C88.2,21.2,88.2,21.2,88.2,21.2L88.2,21.2L88.2,21.2z M88.3,23.5L88.3,23.5
		c-0.1-0.1-0.1-0.1-0.1,0L88.3,23.5C88.2,23.5,88.2,23.5,88.3,23.5l0.2,0.2l0.2,0.2c0,0.1,0.1,0.1,0.1,0v0c0,0,0,0,0,0
		c0-0.1-0.1-0.2-0.1-0.2l0,0c0,0,0,0-0.1,0c0,0,0-0.1,0-0.1l-0.1,0C88.3,23.5,88.3,23.5,88.3,23.5z M88.4,21.4L88.4,21.4
		C88.5,21.4,88.5,21.4,88.4,21.4L88.4,21.4C88.4,21.4,88.4,21.4,88.4,21.4z M89.1,33.1c0,0-0.1-0.1-0.2-0.2l-0.2-0.2
		c0,0-0.1-0.1-0.1-0.1c0,0-0.1-0.1-0.1-0.1c0,0-0.1,0-0.1,0l0,0h0c0,0,0,0,0,0c0,0,0,0.1,0,0.1l0.1,0.1l0.2,0.1
		c0,0.1,0.1,0.1,0.1,0.2c0.1,0,0.1,0.1,0.1,0.1C89,33.1,89.1,33.1,89.1,33.1z M88.7,21.8c0,0.1,0.1,0.1,0.2,0.1v-0.1
		c0,0-0.1-0.1-0.1-0.1c0,0,0-0.1,0-0.1c0,0-0.1-0.1-0.2-0.1l-0.1,0.1C88.7,21.7,88.7,21.7,88.7,21.8z M88.7,24
		C88.7,24,88.7,24,88.7,24L88.7,24C88.8,24,88.8,24,88.7,24z M89,24.1L89,24.1c-0.1-0.1-0.1-0.1-0.1,0C88.9,24.2,89,24.2,89,24.1
		C89,24.2,89,24.2,89,24.1C89,24.2,89,24.1,89,24.1z M88.9,26.1L88.9,26.1L88.9,26.1C89,26.1,88.9,26.1,88.9,26.1z M89.2,20.9
		L89.2,20.9C89.3,20.9,89.3,20.9,89.2,20.9L89.2,20.9L89.2,20.9L89.2,20.9z M89.3,20.5c0,0.1,0,0.1,0,0.2l0,0
		C89.3,20.6,89.3,20.6,89.3,20.5h0.2c0,0,0,0,0,0l0,0C89.4,20.5,89.4,20.5,89.3,20.5z M89.3,25L89.3,25C89.3,25,89.3,25,89.3,25
		L89.3,25L89.3,25z M89.3,32.3L89.3,32.3L89.3,32.3C89.3,32.3,89.3,32.3,89.3,32.3z M89.4,18.6L89.4,18.6
		C89.3,18.6,89.3,18.6,89.4,18.6C89.3,18.6,89.3,18.6,89.4,18.6L89.4,18.6C89.3,18.6,89.3,18.6,89.4,18.6z M89.4,23
		C89.3,23,89.3,23,89.4,23C89.4,23.1,89.4,23,89.4,23L89.4,23C89.4,22.9,89.4,22.9,89.4,23z M89.8,31.7
		C89.8,31.7,89.8,31.7,89.8,31.7C89.8,31.7,89.8,31.8,89.8,31.7L89.8,31.7c-0.1,0.1-0.1,0.1-0.2,0.1l-0.1,0.1c0,0,0,0,0,0
		c0,0,0,0,0,0c0,0,0,0.1,0,0.1c0,0,0,0,0,0c0,0,0,0.1,0,0.1h0c0,0,0.1-0.1,0.2-0.2C89.7,31.9,89.7,31.8,89.8,31.7L89.8,31.7
		C89.8,31.7,89.8,31.7,89.8,31.7z M89.4,25.1L89.4,25.1L89.4,25.1L89.4,25.1z M89.6,22.7l-0.1,0.2c0,0.1,0.1,0.1,0.1,0l0-0.1
		C89.6,22.8,89.6,22.8,89.6,22.7c0.1,0.1,0.2,0,0.2,0c0,0,0.1-0.1,0.1-0.1c0.1-0.1,0.1-0.1,0.2-0.2c0,0,0,0,0,0
		c-0.1,0-0.2,0.1-0.2,0.2c0,0-0.1,0.1,0,0.1C89.7,22.6,89.7,22.6,89.6,22.7z M89.5,18.2C89.5,18.2,89.6,18.2,89.5,18.2L89.5,18.2
		C89.6,18.1,89.6,18.1,89.5,18.2C89.5,18.1,89.5,18.1,89.5,18.2L89.5,18.2L89.5,18.2z M89.5,31.7C89.6,31.7,89.6,31.7,89.5,31.7
		C89.6,31.7,89.5,31.7,89.5,31.7z M89.6,20.6C89.6,20.6,89.6,20.6,89.6,20.6L89.6,20.6L89.6,20.6L89.6,20.6
		C89.6,20.6,89.6,20.6,89.6,20.6L89.6,20.6L89.6,20.6L89.6,20.6C89.6,20.6,89.6,20.6,89.6,20.6z M89.6,22.6L89.6,22.6L89.6,22.6
		L89.6,22.6C89.6,22.6,89.6,22.6,89.6,22.6z M89.7,18.3L89.7,18.3L89.7,18.3C89.7,18.3,89.7,18.3,89.7,18.3z M89.7,20.4L89.7,20.4
		C89.7,20.5,89.7,20.5,89.7,20.4L89.7,20.4L89.7,20.4L89.7,20.4C89.7,20.4,89.7,20.4,89.7,20.4z M89.8,18
		C89.8,17.9,89.8,17.9,89.8,18L89.8,18L89.8,18L89.8,18z M89.9,20.2C89.9,20.2,89.9,20.2,89.9,20.2L89.9,20.2L89.9,20.2
		C89.9,20.2,89.9,20.2,89.9,20.2C89.9,20.2,89.9,20.2,89.9,20.2z M90,17.9c0,0,0.1-0.1,0.1-0.1C90.1,17.8,90,17.9,90,17.9
		C90,17.9,90,17.9,90,17.9z M90.1,20L90.1,20C90.1,20,90.1,20,90.1,20L90.1,20L90.1,20C90.1,20,90.1,20,90.1,20z M90.2,22.2
		L90.2,22.2L90.2,22.2L90.2,22.2C90.2,22.2,90.2,22.2,90.2,22.2z M90.5,33.4C90.4,33.4,90.4,33.3,90.5,33.4L90.5,33.4L90.5,33.4
		L90.5,33.4z M90.6,16.7c0,0-0.1,0-0.1,0C90.5,16.8,90.5,16.8,90.6,16.7c-0.1,0.1,0,0.1,0,0.1c0,0,0,0,0,0h0
		C90.6,16.8,90.6,16.8,90.6,16.7z M90.5,21.1L90.5,21.1L90.5,21.1C90.5,21.1,90.5,21.1,90.5,21.1L90.5,21.1
		C90.5,21.1,90.5,21.1,90.5,21.1z M90.7,19C90.6,19,90.6,19,90.7,19L90.7,19C90.6,19.1,90.7,19,90.7,19c0,0.1,0,0.1,0,0.1
		c0,0,0,0.1,0.1,0.1C90.8,19.2,90.8,19.1,90.7,19L90.7,19C90.7,19,90.7,19,90.7,19L90.7,19L90.7,19z M91.5,33
		c-0.2-0.2-0.3-0.4-0.5-0.5c-0.1-0.1-0.2-0.2-0.3-0.2c0,0.1,0.1,0.2,0.2,0.3c0.1,0.1,0.2,0.2,0.2,0.2l0.1,0c0,0,0,0,0,0
		c0.1,0.1,0.1,0.1,0.2,0.1C91.4,33,91.5,33,91.5,33C91.5,33,91.5,33,91.5,33z M90.7,17c0,0,0.1,0,0.1,0.1l0.1,0.1l0.1,0.1
		c0,0,0.1,0.1,0.1,0.1c0,0,0,0,0,0l0,0C91,17.1,90.9,17,90.7,17C90.8,16.9,90.7,16.9,90.7,17z M90.8,19.2
		C90.8,19.2,90.8,19.2,90.8,19.2L90.8,19.2L90.8,19.2z M91.1,19.5c0,0.1,0.1,0.1,0.1,0.1c0,0,0.1,0.1,0.2,0.1c0-0.1-0.1-0.1-0.1-0.1
		c0,0,0-0.1,0-0.1C91.2,19.5,91.2,19.5,91.1,19.5z M91.4,17.5C91.4,17.5,91.3,17.5,91.4,17.5L91.4,17.5l-0.1-0.2h-0.1
		C91.2,17.5,91.3,17.5,91.4,17.5z M91.6,18.7c0,0,0.1,0,0.1,0c0.1-0.1,0.2-0.1,0.2-0.2c0,0,0.1-0.1,0.2-0.2c0,0-0.1,0-0.1,0
		c0,0,0,0,0,0c0,0,0,0,0,0c-0.1,0.1-0.1,0.1-0.1,0.2C91.8,18.5,91.7,18.6,91.6,18.7z M93,32L93,32L93,32L93,32z M93.3,32.3
		L93.3,32.3C93.2,32.2,93.2,32.3,93.3,32.3L93.3,32.3C93.2,32.3,93.3,32.3,93.3,32.3z M93.5,32.5L93.5,32.5
		C93.5,32.4,93.5,32.5,93.5,32.5L93.5,32.5L93.5,32.5z M93.7,32.6C93.7,32.6,93.7,32.6,93.7,32.6L93.7,32.6c0,0,0,0,0,0.1L93.7,32.6
		L93.7,32.6z"/>
	<path class="st1" d="M106.4,16.7l-6.5,17c-0.1,0.2-0.2,0.3-0.4,0.3h-3.4c-0.3,0-0.4-0.1-0.3-0.4l6.5-17c0.1-0.2,0.2-0.3,0.4-0.3
		h3.4C106.4,16.3,106.5,16.4,106.4,16.7z M96.6,33.4c-0.1-0.1-0.1-0.1-0.1-0.1c-0.1-0.1-0.1-0.1-0.1-0.1c0,0-0.1,0-0.1,0l0,0l0,0
		l0,0c0.1,0,0.2,0.1,0.2,0.2l0,0C96.5,33.5,96.5,33.5,96.6,33.4z M96.6,33.5L96.6,33.5C96.6,33.5,96.6,33.5,96.6,33.5L96.6,33.5
		L96.6,33.5z M97.7,31.7L97.7,31.7c-0.1,0.1-0.2,0.2-0.2,0.2c-0.1,0-0.1,0.1-0.1,0.1c-0.1,0.1-0.2,0.2-0.3,0.4c0,0,0,0,0,0.1
		l0.1-0.1c0.1,0,0.1-0.1,0.2-0.1c0,0,0.1-0.1,0.1-0.1c0.1-0.1,0.2-0.2,0.2-0.2l0,0C97.7,31.8,97.7,31.8,97.7,31.7z M97.4,32.2
		L97.4,32.2L97.4,32.2C97.4,32.2,97.4,32.2,97.4,32.2z M98.2,30.4L98.2,30.4L98.2,30.4L98.2,30.4C98.2,30.4,98.2,30.4,98.2,30.4z
		 M98.3,28.2c0,0-0.1,0-0.1-0.1c0,0,0,0,0,0s0,0,0,0v0C98.3,28.3,98.3,28.3,98.3,28.2z M99.1,29c-0.1-0.1-0.2-0.2-0.3-0.4
		c-0.1-0.1-0.3-0.2-0.4-0.3c0,0.1,0,0.2,0,0.1c0,0.1,0,0.1,0.1,0.1c0,0,0.1,0.1,0.1,0.1c0.1,0.1,0.1,0.1,0.2,0.2
		C98.9,28.9,98.9,28.9,99.1,29C99.1,29,99.1,29,99.1,29z M98.7,33.1L98.7,33.1c0-0.1,0-0.2-0.1-0.2c0,0-0.1-0.1-0.2-0.1
		c0,0.1,0.1,0.1,0.1,0.2C98.6,33,98.6,33.1,98.7,33.1C98.6,33.1,98.6,33.1,98.7,33.1z M98.8,33.1L98.8,33.1l0.1,0.2l0,0
		c0,0,0.1,0,0.1,0l0.1,0C99.1,33.4,99,33.3,98.8,33.1z M98.8,26.5c0,0.1,0,0.1,0.1,0.1c0,0,0.1,0.1,0.1,0.1c0,0,0,0,0,0v0
		c0,0,0-0.1-0.1-0.1C98.9,26.5,98.9,26.5,98.8,26.5z M98.9,31.1L98.9,31.1L98.9,31.1C98.9,31.1,98.9,31.1,98.9,31.1z M98.9,31.1
		L98.9,31.1L98.9,31.1L98.9,31.1z M99,26.1L99,26.1L99,26.1L99,26.1z M99.2,28.9L99.2,28.9C99.2,28.8,99.1,28.8,99.2,28.9L99.2,28.9
		L99.2,28.9C99.2,28.9,99.2,28.9,99.2,28.9z M99.3,25.7C99.3,25.7,99.4,25.7,99.3,25.7L99.3,25.7c0.1-0.1,0.1-0.1,0.1-0.1h0
		c0,0,0.1-0.1,0.2-0.1c0,0,0,0,0,0l0.5-0.5c0,0,0,0,0,0c0,0,0.1-0.1,0-0.1c-0.1,0-0.2,0.1-0.3,0.2c0,0,0,0,0,0.1c0,0,0,0-0.1,0
		c0,0-0.1,0.1-0.1,0.1v0c-0.1,0-0.1,0.1-0.1,0.2v0.1c0,0,0,0,0,0l0,0c0,0,0,0,0,0c0,0,0,0,0,0l-0.1,0v-0.1c0,0-0.1,0.1-0.1,0.1
		c0,0,0,0.1-0.1,0.1L99.3,25.7C99.3,25.7,99.3,25.7,99.3,25.7z M99.2,33.6L99.2,33.6L99.2,33.6C99.2,33.6,99.2,33.6,99.2,33.6z
		 M99.7,32.2c0,0,0.1-0.1,0.1-0.1c0,0,0,0-0.1,0L99.7,32.2C99.7,32.1,99.7,32.1,99.7,32.2c-0.1,0-0.1,0-0.1,0
		c-0.1,0-0.1,0.1-0.2,0.2h0c0,0,0,0,0,0c0,0,0,0,0,0h0c0,0,0,0.1,0,0.1c0,0,0,0.1,0.1,0.1c0.1-0.1,0.2-0.2,0.2-0.2
		C99.7,32.3,99.7,32.2,99.7,32.2z M99.6,27.6l-0.2,0.2c0,0-0.1,0.1-0.1,0.2c0,0,0.1,0.1,0.1,0l0.1-0.1c0,0,0,0,0,0c0,0,0,0,0,0
		c0.2-0.1,0.4-0.3,0.5-0.5c0,0,0-0.1,0-0.1c0,0-0.1,0-0.1,0l-0.2,0.2c0,0,0,0-0.1,0c0,0,0,0-0.1,0.1c0,0,0,0,0,0L99.6,27.6
		L99.6,27.6C99.6,27.6,99.6,27.6,99.6,27.6z M100.3,29.2L100.3,29.2c-0.1,0.1-0.2,0.1-0.2,0.2c0,0,0,0,0,0.1c0,0,0,0,0,0
		c0,0-0.1,0-0.1,0l-0.2,0.2l-0.2,0.2c-0.1,0.1-0.1,0.2-0.2,0.2c0,0,0,0,0,0c0,0,0.1,0,0.1,0c0.1,0,0.1-0.1,0.2-0.2l0.1-0.1
		c0,0,0,0,0,0c0,0,0,0,0,0l0.2-0.2c0,0,0.1-0.1,0.1-0.2C100.2,29.4,100.3,29.4,100.3,29.2z M99.5,30.4
		C99.5,30.4,99.5,30.4,99.5,30.4C99.4,30.4,99.4,30.5,99.5,30.4L99.5,30.4C99.5,30.4,99.5,30.4,99.5,30.4z M99.5,31.6
		C99.5,31.6,99.5,31.6,99.5,31.6L99.5,31.6L99.5,31.6C99.5,31.6,99.5,31.6,99.5,31.6z M100.3,24.7L100.3,24.7L100.3,24.7
		C100.3,24.7,100.3,24.7,100.3,24.7z M100.8,23.8C100.8,23.8,100.8,23.8,100.8,23.8c0-0.1-0.1-0.1-0.1-0.1c0,0-0.1,0-0.1,0
		c0,0-0.1,0-0.1,0l0,0c0,0,0,0.1,0,0.1c0,0,0.1,0.1,0.2,0.2h0C100.9,23.9,100.9,23.9,100.8,23.8L100.8,23.8L100.8,23.8z M100.8,26
		L100.8,26c-0.1-0.1-0.1-0.1-0.1-0.1c0,0,0,0,0,0c0,0,0,0.1,0.1,0.1C100.7,26,100.7,26,100.8,26C100.7,26,100.7,26,100.8,26
		C100.7,26.1,100.8,26.1,100.8,26C100.8,26.1,100.8,26.1,100.8,26C100.8,26,100.8,26,100.8,26z M101.5,24.4c-0.1,0-0.1,0-0.1-0.1
		c0,0,0,0,0,0s0,0-0.1-0.1c0,0-0.1-0.1-0.1-0.1c0,0-0.1,0-0.1-0.1c0,0,0,0-0.1,0c0,0-0.1,0-0.1,0v0c0.1,0.1,0.2,0.2,0.2,0.2
		C101.2,24.3,101.3,24.4,101.5,24.4L101.5,24.4c0,0.1,0,0.1,0,0.1V24.4L101.5,24.4L101.5,24.4z M101.3,26.4l-0.1-0.1
		c0,0-0.1-0.1-0.1-0.1c0,0,0,0,0,0.1c0,0,0,0,0,0c0,0,0,0,0,0c0,0,0,0.1,0.1,0.1c0,0,0,0,0,0L101.3,26.4c-0.1,0.1,0,0.1,0,0.1
		C101.3,26.5,101.3,26.4,101.3,26.4z M101.3,22.2c0.1,0.1,0.1,0.1,0.1,0.1c0,0,0,0,0,0c0,0,0-0.1,0-0.1L101.3,22.2
		C101.3,22.1,101.3,22.1,101.3,22.2z M101.3,24.1L101.3,24.1L101.3,24.1C101.4,24.1,101.4,24.1,101.3,24.1z M101.5,26.6L101.5,26.6
		L101.5,26.6L101.5,26.6L101.5,26.6z M101.8,23.4c0,0,0.1-0.1,0.1-0.1c0,0,0-0.1,0-0.1l0.1,0.1c0.1,0,0.1-0.1,0-0.2
		c0,0-0.1,0.1-0.1,0.1c0,0,0,0-0.1,0c0,0,0,0,0,0h0C101.8,23.3,101.8,23.3,101.8,23.4c-0.1,0-0.1,0-0.2,0.1
		C101.7,23.4,101.8,23.4,101.8,23.4z M101.8,25.6C101.8,25.6,101.7,25.6,101.8,25.6l-0.1,0.1C101.7,25.7,101.8,25.7,101.8,25.6z
		 M101.7,23.1L101.7,23.1L101.7,23.1L101.7,23.1C101.7,23.1,101.7,23.1,101.7,23.1z M101.7,21.1c0.1,0,0.1,0,0.2-0.1V21
		C101.8,21,101.8,21,101.7,21.1C101.8,21.1,101.7,21.1,101.7,21.1z M102.2,25.1c-0.2,0.2-0.3,0.4-0.4,0.5l0.1-0.1l0,0c0,0,0,0,0,0
		c0,0,0,0,0,0l0.1,0c0.1-0.1,0.1-0.1,0.2-0.2c0.1-0.1,0.1-0.1,0.2-0.2c0,0,0.1-0.1,0.1-0.1l0.1-0.1v-0.1
		C102.6,24.7,102.4,24.9,102.2,25.1z M102,20.9L102,20.9c0-0.1,0.1-0.1,0.1-0.1c0.1,0,0.1-0.1,0.2-0.1c0,0,0.1-0.1,0.1-0.1
		c0.1-0.1,0.1-0.1,0.2-0.2c0,0,0,0,0,0c-0.1,0-0.2,0.1-0.2,0.2c0,0-0.1,0.1,0,0.1c-0.1,0-0.1,0.1-0.2,0.1L102,20.9
		C101.9,21,102,21,102,20.9z M102,18.7L102,18.7L102,18.7L102,18.7C102,18.7,102,18.7,102,18.7C102,18.6,102,18.6,102,18.7L102,18.7
		L102,18.7L102,18.7C102,18.7,102,18.7,102,18.7z M102,20.7C102,20.7,102,20.7,102,20.7L102,20.7L102,20.7L102,20.7z M102.1,24.5
		L102.1,24.5C102,24.5,102,24.6,102.1,24.5L102.1,24.5C102.1,24.6,102.1,24.6,102.1,24.5L102.1,24.5
		C102.1,24.5,102.1,24.5,102.1,24.5z M102.1,18.6L102.1,18.6L102.1,18.6L102.1,18.6C102.1,18.5,102.1,18.5,102.1,18.6L102.1,18.6
		C102.1,18.5,102.1,18.6,102.1,18.6z M102.3,18.3C102.3,18.3,102.3,18.3,102.3,18.3L102.3,18.3L102.3,18.3
		C102.3,18.2,102.3,18.3,102.3,18.3C102.3,18.3,102.3,18.3,102.3,18.3z M102.4,22.7C102.4,22.8,102.4,22.8,102.4,22.7
		C102.4,22.8,102.4,22.8,102.4,22.7c0.1,0,0.1,0,0.1,0c0,0,0,0,0,0v0h0C102.4,22.6,102.4,22.7,102.4,22.7z M102.5,18.1
		C102.5,18.1,102.5,18.1,102.5,18.1L102.5,18.1C102.5,18.1,102.5,18.1,102.5,18.1L102.5,18.1L102.5,18.1z M102.6,20.3L102.6,20.3
		L102.6,20.3L102.6,20.3C102.6,20.3,102.6,20.3,102.6,20.3z M102.9,21.3L102.9,21.3L102.9,21.3L102.9,21.3L102.9,21.3z M103,19.2
		L103,19.2L103,19.2C102.9,19.2,102.9,19.2,103,19.2L103,19.2C102.9,19.2,102.9,19.2,103,19.2z M103.1,17.1c0,0.1,0,0.1,0,0.1
		c0,0,0,0.1,0.1,0.1C103.2,17.2,103.2,17.2,103.1,17.1L103.1,17.1C103.1,17.1,103.1,17.1,103.1,17.1L103.1,17.1L103.1,17.1
		C103.1,17.1,103,17.1,103.1,17.1L103.1,17.1C103.1,17.1,103.1,17.1,103.1,17.1z M103.9,20.1C103.9,20,103.9,20,103.9,20.1
		L103.9,20.1L103.9,20.1c-0.1-0.1-0.1-0.2-0.2-0.2c-0.1,0-0.1-0.1-0.2-0.2c0,0-0.1-0.1-0.2-0.2c0,0-0.1-0.1-0.1-0.1l-0.1-0.1l0,0
		c0,0,0,0,0,0c0.1,0.1,0.2,0.1,0.2,0.2c0,0,0,0,0,0v0c0,0,0.1,0.1,0.1,0.1c0,0,0.1,0.1,0.1,0.1C103.6,19.9,103.7,20,103.9,20.1
		C103.8,20.1,103.8,20.1,103.9,20.1L103.9,20.1C103.9,20.1,103.9,20.1,103.9,20.1z M103.2,17.3L103.2,17.3L103.2,17.3
		C103.2,17.3,103.2,17.3,103.2,17.3z M103.5,17.5c0,0.1,0.1,0.1,0.1,0.1c0,0,0.1,0.1,0.2,0.1c0-0.1-0.1-0.1-0.1-0.1c0,0,0-0.1,0-0.1
		C103.6,17.5,103.6,17.5,103.5,17.5z M103.9,17.9C103.9,17.9,103.9,17.9,103.9,17.9C104,17.9,103.9,17.9,103.9,17.9z M104,18
		C104,18,104,18,104,18C104,17.9,104,17.9,104,18C104,18,104,18,104,18z M104.1,21.2L104.1,21.2L104.1,21.2
		C104.1,21.3,104.1,21.3,104.1,21.2L104.1,21.2C104.1,21.2,104.1,21.2,104.1,21.2z M105.1,18.1c0,0-0.1,0-0.1,0c0,0,0,0,0,0l-0.1,0
		c-0.1,0-0.2,0.1-0.3,0.2l0,0.1c0,0,0,0,0,0c0,0,0,0,0,0c0,0-0.1,0-0.1,0c0,0,0,0.1-0.1,0.1c-0.1,0-0.1,0.1-0.2,0.2h0c0,0,0,0,0,0
		c0.1-0.1,0.1-0.1,0.2-0.2c0.1,0,0.1-0.1,0.2-0.1l0.3-0.3c0,0,0.1-0.1,0.1-0.1C105,18.1,105,18.1,105.1,18.1
		C105.1,18.1,105.1,18.1,105.1,18.1z M104.5,18L104.5,18L104.5,18L104.5,18z M105.3,16.9L105.3,16.9L105.3,16.9L105.3,16.9z
		 M105.4,17L105.4,17L105.4,17C105.4,17.1,105.5,17.1,105.4,17L105.4,17C105.5,17,105.4,17,105.4,17z"/>
	<path class="st1" d="M120.6,17c0.2,0.5,0.2,1.2-0.1,2l-1.4,3.6c-0.1,0.2-0.2,0.3-0.4,0.3h-3.4c-0.3,0-0.4-0.1-0.3-0.4l1.1-2.9
		c0.1-0.3,0-0.4-0.2-0.4h-3.9c-0.2,0-0.3,0.1-0.4,0.3l-4.2,11.1c-0.1,0.3,0,0.4,0.3,0.4h4.1c0.2,0,0.3-0.1,0.4-0.3l1.5-3.8l-1-1.8
		c-0.1-0.3,0-0.4,0.2-0.4h5.2c0.3,0,0.4,0.1,0.3,0.4l-2.4,6.4c-0.6,1.6-1.8,2.4-3.5,2.4h-7.9c-0.9,0-1.4-0.3-1.6-0.8
		c-0.2-0.5-0.2-1.2,0.1-2l4.8-12.5c0.6-1.6,1.8-2.4,3.5-2.4h7.6C119.8,16.3,120.4,16.5,120.6,17z M103.8,32.9L103.8,32.9L103.8,32.9
		L103.8,32.9L103.8,32.9z M103.9,33L103.9,33C103.9,33,103.9,33.1,103.9,33L103.9,33L103.9,33z M104.5,32L104.5,32
		C104.4,32,104.4,32,104.5,32c-0.1,0.1-0.1,0.1,0,0.1L104.5,32C104.5,32,104.5,32,104.5,32z M104.6,29.7
		C104.5,29.7,104.5,29.7,104.6,29.7c-0.1,0-0.1,0.1-0.1,0.1C104.5,29.8,104.5,29.7,104.6,29.7z M104.6,29.3L104.6,29.3L104.6,29.3
		C104.5,29.4,104.6,29.3,104.6,29.3z M104.8,29.4C104.7,29.4,104.7,29.4,104.8,29.4l-0.2,0.2h0.1C104.7,29.5,104.7,29.5,104.8,29.4
		C104.8,29.4,104.8,29.4,104.8,29.4z M105.2,29c-0.2,0.1-0.3,0.2-0.3,0.3l0.1,0.1c0,0,0.1-0.1,0.1-0.1c0,0,0-0.1,0.1-0.1
		C105.2,29.1,105.2,29.1,105.2,29z M105,31.5c-0.1,0-0.1,0-0.2,0l0.1,0.1h-0.1c0,0,0,0,0,0v0h0l0,0L105,31.5
		C105,31.6,105,31.5,105,31.5z M105.7,27.9L105.7,27.9L105.7,27.9C105.7,28,105.7,28,105.7,27.9L105.7,27.9L105.7,27.9z M106,28.2
		c-0.1-0.1-0.1-0.2-0.2-0.2c0,0,0,0,0,0l0,0v0.1C105.9,28.2,105.9,28.2,106,28.2C105.9,28.2,105.9,28.2,106,28.2
		C106,28.2,106,28.2,106,28.2z M105.9,25.9C105.9,26,106,26,105.9,25.9l0.1,0.1c0-0.1,0-0.1,0-0.1C106.1,25.9,106,25.9,105.9,25.9z
		 M106.6,33.2c-0.1-0.1-0.1-0.1-0.2-0.2l-0.2-0.2c0,0-0.1-0.1-0.2,0c0.1,0,0.1,0.1,0.1,0.1c0,0,0,0,0.1,0.1c0,0,0.1,0,0.1,0.1
		l0.1,0.1L106.6,33.2C106.6,33.3,106.6,33.3,106.6,33.2z M106.2,26C106.1,26.1,106.1,26.1,106.2,26C106.1,26.1,106.2,26.1,106.2,26
		c0,0.1,0,0.1,0,0.2l0,0c0,0,0,0,0,0C106.3,26.1,106.2,26.1,106.2,26z M106.2,30.6C106.2,30.6,106.2,30.6,106.2,30.6
		C106.2,30.6,106.2,30.6,106.2,30.6C106.2,30.7,106.2,30.7,106.2,30.6L106.2,30.6z M106.3,28.5L106.3,28.5L106.3,28.5L106.3,28.5
		C106.3,28.4,106.2,28.5,106.3,28.5L106.3,28.5L106.3,28.5l-0.1-0.1h0v0L106.3,28.5C106.2,28.5,106.2,28.5,106.3,28.5z M106.4,26.3
		L106.4,26.3L106.4,26.3C106.4,26.3,106.4,26.3,106.4,26.3L106.4,26.3L106.4,26.3z M106.7,23.1L106.7,23.1c0.1-0.1,0.1-0.1,0.1-0.1
		h0L106.7,23.1L106.7,23.1C106.7,23.1,106.7,23.1,106.7,23.1z M107,32c0.1,0,0.1-0.1,0.2-0.2c-0.1,0-0.1,0-0.1,0
		C107,31.8,107,31.9,107,32c-0.1,0-0.2,0.1-0.2,0.1c0,0,0,0,0,0C106.9,32.1,106.9,32,107,32z M106.9,25.3
		C106.9,25.2,106.9,25.2,106.9,25.3L106.9,25.3L106.9,25.3L106.9,25.3z M107.1,22.9c0,0,0.1-0.1,0.1-0.1l0.1-0.1c0,0,0,0,0,0
		c0,0,0,0,0,0l0.1-0.1c0,0,0,0,0-0.1c0,0,0,0,0,0c0,0,0,0,0,0v0c0,0,0,0,0,0c0,0-0.1,0.1-0.1,0.1c0,0,0,0.1,0,0.1c0,0-0.1,0-0.1,0
		c0,0-0.1,0.1-0.2,0.1c0,0-0.1,0.1-0.2,0.2c0,0,0,0,0,0.1v0C107,22.9,107,22.9,107.1,22.9z M107.4,29.3
		C107.4,29.3,107.4,29.3,107.4,29.3c0-0.1,0-0.1,0-0.1C107.3,29.2,107.3,29.2,107.4,29.3c-0.1,0-0.1,0-0.2,0
		c-0.1,0.1-0.1,0.1-0.1,0.1l-0.1,0.1c0,0-0.1,0.1-0.1,0.1c0.1,0,0.1,0,0.2,0l0.1-0.1c0,0,0,0,0,0c0,0,0,0,0,0h0.1c0,0,0,0,0.1,0
		L107.4,29.3C107.3,29.4,107.3,29.3,107.4,29.3z M107.5,24.6c0,0-0.1,0-0.1,0c0,0,0,0.1,0,0.1c-0.1,0-0.1,0.1-0.1,0.1l0,0
		c0,0,0,0,0,0c0,0-0.1,0-0.1,0l0,0.1v0c0,0,0,0,0,0l0,0c0.1,0,0.1,0,0.2-0.1c0,0,0.1-0.1,0.1-0.1C107.4,24.7,107.5,24.7,107.5,24.6
		L107.5,24.6L107.5,24.6z M107.6,22.3L107.6,22.3C107.6,22.3,107.6,22.3,107.6,22.3L107.6,22.3L107.6,22.3z M107.7,33.5L107.7,33.5
		L107.7,33.5C107.6,33.5,107.7,33.5,107.7,33.5z M107.7,22.1C107.7,22.1,107.7,22.1,107.7,22.1L107.7,22.1
		C107.7,22.2,107.7,22.2,107.7,22.1C107.7,22.2,107.7,22.2,107.7,22.1L107.7,22.1C107.7,22.1,107.7,22.1,107.7,22.1z M108.3,23.5
		C108.3,23.5,108.3,23.5,108.3,23.5c0-0.1-0.1-0.2-0.2-0.2c0,0,0,0,0,0c0,0,0.1,0.1,0.1,0.1C108.2,23.4,108.3,23.5,108.3,23.5z
		 M108.1,21.1L108.1,21.1C108.1,21.1,108.1,21.1,108.1,21.1C108.1,21.1,108.1,21.1,108.1,21.1L108.1,21.1
		C108.1,21.1,108.1,21.1,108.1,21.1z M108.9,21.8L108.9,21.8l-0.2-0.2c-0.1,0-0.1-0.1-0.1-0.1c0,0-0.1,0-0.1,0c0,0,0,0,0,0
		c0-0.1-0.1-0.1-0.1-0.2c-0.1,0-0.1,0-0.2-0.1c0,0,0,0,0,0.1c0,0,0,0,0,0c0.1,0.1,0.2,0.2,0.3,0.3C108.6,21.7,108.7,21.7,108.9,21.8
		C108.8,21.8,108.9,21.8,108.9,21.8C108.9,21.8,108.9,21.8,108.9,21.8z M108.3,25.9L108.3,25.9L108.3,25.9L108.3,25.9
		C108.3,25.9,108.3,25.9,108.3,25.9L108.3,25.9L108.3,25.9z M108.8,23.9C108.8,23.8,108.7,23.8,108.8,23.9c-0.1-0.1-0.2-0.1-0.2-0.2
		c0,0,0,0,0,0l-0.1-0.1c-0.1,0-0.1-0.1-0.1-0.1c0,0,0,0,0,0c0,0,0,0,0,0C108.4,23.7,108.5,23.8,108.8,23.9
		C108.7,23.9,108.7,23.9,108.8,23.9c-0.1,0.1-0.1,0.1,0,0.1C108.8,24,108.8,24,108.8,23.9L108.8,23.9
		C108.8,23.9,108.8,23.9,108.8,23.9z M108.4,19.2C108.4,19.2,108.4,19.3,108.4,19.2L108.4,19.2c0.1,0.1,0.1,0.1,0.1,0h0l0,0
		C108.5,19.2,108.5,19.2,108.4,19.2C108.5,19.1,108.4,19.1,108.4,19.2L108.4,19.2C108.4,19.1,108.4,19.2,108.4,19.2z M108.5,32.6
		L108.5,32.6C108.5,32.6,108.5,32.6,108.5,32.6L108.5,32.6L108.5,32.6z M108.5,19.3C108.5,19.3,108.5,19.3,108.5,19.3l0.2,0.2
		c0.1,0.1,0.1,0.1,0.2,0.1c0,0,0-0.1,0-0.1C108.7,19.4,108.6,19.3,108.5,19.3z M108.8,32.9C108.8,32.9,108.8,32.9,108.8,32.9
		L108.8,32.9L108.8,32.9L108.8,32.9C108.7,32.9,108.7,32.9,108.8,32.9z M108.9,33.1C109,33.1,109,33.1,108.9,33.1
		C109,33.1,109,33.1,108.9,33.1C109,33.1,109,33.1,108.9,33.1L108.9,33.1c0-0.1,0-0.1-0.1-0.1h0L108.9,33.1
		C108.8,33.1,108.9,33.1,108.9,33.1z M109.4,20.7c0,0,0.1,0,0.1-0.1c0,0,0,0,0,0C109.4,20.6,109.4,20.6,109.4,20.7
		c-0.1,0-0.1,0.1-0.2,0.1l0,0C109.3,20.8,109.3,20.8,109.4,20.7z M109.2,22.9L109.2,22.9C109.2,22.9,109.2,22.9,109.2,22.9z
		 M109.3,32.1c0.1,0,0.1-0.1,0.1-0.1C109.3,32,109.3,32,109.3,32.1z M109.4,22.9L109.4,22.9L109.4,22.9L109.4,22.9z M109.6,22.7
		L109.6,22.7C109.5,22.7,109.5,22.7,109.6,22.7L109.6,22.7C109.5,22.7,109.5,22.7,109.6,22.7C109.5,22.8,109.5,22.8,109.6,22.7
		C109.5,22.8,109.6,22.8,109.6,22.7C109.6,22.8,109.6,22.8,109.6,22.7C109.6,22.7,109.6,22.7,109.6,22.7L109.6,22.7L109.6,22.7z
		 M109.6,31.7C109.6,31.8,109.6,31.8,109.6,31.7c0.1,0,0.1,0,0.1,0c0,0,0-0.1,0-0.1v0l0,0l0,0C109.6,31.6,109.6,31.7,109.6,31.7z
		 M109.6,18.2L109.6,18.2L109.6,18.2C109.7,18.1,109.7,18.2,109.6,18.2z M109.7,20.2c0,0.1-0.1,0.1-0.1,0.1
		C109.7,20.3,109.7,20.3,109.7,20.2z M109.7,22.6C109.7,22.6,109.7,22.7,109.7,22.6C109.7,22.7,109.7,22.7,109.7,22.6L109.7,22.6
		L109.7,22.6z M109.8,18L109.8,18L109.8,18L109.8,18z M109.9,17.9C109.8,17.9,109.8,17.9,109.9,17.9C109.9,18,109.9,17.9,109.9,17.9
		z M110.8,32.4L110.8,32.4C110.8,32.4,110.8,32.4,110.8,32.4C110.8,32.4,110.8,32.4,110.8,32.4L110.8,32.4
		C110.8,32.4,110.8,32.4,110.8,32.4z M110.9,32.5L110.9,32.5L110.9,32.5L110.9,32.5C110.9,32.5,110.9,32.5,110.9,32.5z M111.2,32.9
		L111.2,32.9C111.2,32.9,111.2,32.9,111.2,32.9C111.3,32.9,111.2,32.8,111.2,32.9C111.2,32.8,111.2,32.9,111.2,32.9z M111.8,18.4
		L111.8,18.4C111.7,18.4,111.7,18.4,111.8,18.4C111.7,18.5,111.7,18.5,111.8,18.4L111.8,18.4L111.8,18.4
		C111.8,18.4,111.8,18.4,111.8,18.4z M112,31.9c0,0,0-0.1,0-0.1l-0.1,0.1C111.9,31.9,112,31.9,112,31.9z M112.2,17.9
		c-0.1,0.1-0.1,0.1-0.1,0.2l0.1,0.1l0.1-0.1c0,0,0.1-0.1,0.1-0.1v-0.1C112.3,17.8,112.2,17.9,112.2,17.9z M112.1,31.6
		c0.1,0.1,0.1,0.1,0.1,0.1c0,0,0.1,0,0.1-0.1c-0.1,0-0.1,0-0.1,0C112.2,31.6,112.1,31.6,112.1,31.6z M112.6,17.7L112.6,17.7
		c-0.1,0-0.1,0-0.1,0L112.6,17.7C112.5,17.8,112.5,17.7,112.6,17.7z M112.6,33.5C112.6,33.5,112.6,33.5,112.6,33.5L112.6,33.5
		L112.6,33.5C112.6,33.5,112.6,33.5,112.6,33.5z M112.9,32.1C112.9,32.1,112.9,32.1,112.9,32.1C112.9,32.1,112.9,32.1,112.9,32.1z
		 M113.1,32.3C113.1,32.3,113.1,32.3,113.1,32.3L113.1,32.3C113.1,32.3,113.1,32.2,113.1,32.3L113.1,32.3
		C113.1,32.3,113.1,32.3,113.1,32.3z M113.4,32.5c0,0.1,0,0.1,0.1,0.2c0,0,0,0,0,0C113.5,32.6,113.5,32.5,113.4,32.5
		C113.4,32.5,113.3,32.5,113.4,32.5l-0.1,0C113.3,32.5,113.3,32.5,113.4,32.5z M113.6,30.4c0,0-0.1,0-0.1,0c0,0.1,0.1,0.1,0.2,0.1
		C113.6,30.5,113.6,30.4,113.6,30.4z M113.8,17.2C113.7,17.2,113.7,17.2,113.8,17.2c-0.1-0.1-0.1-0.1-0.1-0.1c0,0-0.1,0-0.1,0
		c0,0,0,0,0,0c0,0,0,0,0,0c0,0,0,0,0,0l0.2,0.1h0v0C113.8,17.3,113.8,17.3,113.8,17.2z M113.6,32.7L113.6,32.7c0,0.1,0,0.1,0.1,0.2
		c0,0,0.1,0,0.1,0c0,0-0.1,0-0.1,0L113.6,32.7C113.7,32.8,113.7,32.8,113.6,32.7L113.6,32.7C113.7,32.7,113.6,32.7,113.6,32.7z
		 M113.8,33.1C113.8,33.1,113.8,33.1,113.8,33.1c-0.1-0.1-0.1-0.1-0.1,0C113.7,33.1,113.8,33.1,113.8,33.1z M113.9,33L113.9,33
		L113.9,33L113.9,33z M114.1,25.3C114.1,25.3,114.1,25.3,114.1,25.3L114.1,25.3c0.1-0.1,0.1-0.1,0.2-0.1
		C114.2,25.1,114.1,25.2,114.1,25.3z M114.2,30.7L114.2,30.7c-0.1,0-0.1,0.1,0,0.1h0C114.2,30.8,114.2,30.8,114.2,30.7z M114.5,18.1
		c-0.2,0.1-0.3,0.3-0.4,0.4c0.1,0,0.1-0.1,0.2-0.1c0,0,0.1-0.1,0.1-0.1c0,0,0.1-0.1,0.1-0.1C114.5,18.2,114.5,18.1,114.5,18.1z
		 M114.3,29.6C114.3,29.6,114.2,29.7,114.3,29.6C114.3,29.7,114.3,29.7,114.3,29.6C114.3,29.6,114.4,29.6,114.3,29.6h0.1
		c0.1,0,0.1-0.1,0.2-0.2c0-0.1,0.1-0.1,0.2-0.2c0.1-0.1,0.1-0.2,0.1-0.3c0,0-0.1,0-0.1,0l0,0.1c0,0-0.1,0-0.1,0.1c0,0,0,0,0,0
		l-0.1,0l0,0c0,0,0,0,0,0.1l0,0c0,0-0.1,0-0.1,0C114.3,29.5,114.3,29.6,114.3,29.6z M114.5,31.8C114.4,31.8,114.4,31.8,114.5,31.8
		L114.5,31.8C114.4,31.8,114.4,31.8,114.5,31.8C114.4,31.8,114.4,31.8,114.5,31.8z M114.5,27.1C114.5,27.1,114.6,27.1,114.5,27.1
		c0.2-0.1,0.3-0.2,0.3-0.2c0.1-0.1,0.2-0.2,0.2-0.3c0,0-0.1,0-0.1,0l-0.2,0.2c0,0-0.1,0.1-0.1,0.1C114.6,27,114.5,27,114.5,27.1
		L114.5,27.1L114.5,27.1z M114.9,17.8c0,0,0.1-0.1,0.1-0.2C114.9,17.6,114.9,17.7,114.9,17.8c-0.1,0-0.1,0-0.2,0l-0.1,0.1
		c0,0,0,0.1,0,0.1c0,0,0,0,0,0.1v0c0,0,0,0,0,0l0.2-0.2C114.9,17.8,114.9,17.8,114.9,17.8z M115.2,28.8
		C115.2,28.8,115.2,28.8,115.2,28.8L115.2,28.8L115.2,28.8L115.2,28.8L115.2,28.8z M115.3,25.3C115.3,25.3,115.3,25.3,115.3,25.3
		L115.3,25.3L115.3,25.3L115.3,25.3z M115.3,30.9L115.3,30.9L115.3,30.9L115.3,30.9C115.3,30.9,115.3,30.9,115.3,30.9z M115.4,25.4
		L115.4,25.4C115.5,25.4,115.5,25.4,115.4,25.4L115.4,25.4C115.5,25.4,115.5,25.4,115.4,25.4L115.4,25.4L115.4,25.4L115.4,25.4
		C115.4,25.4,115.4,25.4,115.4,25.4z M115.5,25.5c0.1,0.1,0.2,0.2,0.3,0.3h0.1c0,0,0,0,0,0c0-0.1-0.1-0.1-0.2-0.2
		C115.7,25.5,115.6,25.5,115.5,25.5L115.5,25.5C115.5,25.5,115.5,25.5,115.5,25.5z M115.6,27.7C115.6,27.7,115.6,27.7,115.6,27.7
		c0,0.1,0,0.1,0.1,0.2c0.1,0,0.1,0.1,0.1,0.1h0.1C115.9,27.9,115.7,27.8,115.6,27.7z M116,28.2c0.1,0.1,0.1,0.2,0.1,0.2
		c0.1,0,0.1,0.1,0.2,0.1c0,0,0.1,0.1,0.1,0.1c0-0.1-0.1-0.1-0.1-0.2c0,0-0.1-0.1-0.2-0.1C116.1,28.2,116,28.2,116,28.2z M116.1,26.1
		L116.1,26.1L116.1,26.1l0.2,0.1c0,0,0,0,0,0c0,0,0,0,0,0C116.3,26.1,116.2,26.1,116.1,26.1C116.2,26.1,116.2,26.1,116.1,26.1
		c0-0.1,0-0.1,0-0.1C116.1,26,116.1,26.1,116.1,26.1z M116.1,28.4C116.1,28.4,116.1,28.5,116.1,28.4L116.1,28.4
		C116.2,28.4,116.1,28.4,116.1,28.4z M116.3,25.9c0,0-0.1,0-0.1-0.1c0.1,0.1,0.2,0.2,0.3,0.4l0.1,0c0,0,0,0,0.1,0v0
		c-0.1,0-0.1-0.1-0.1-0.2c0,0,0-0.1,0-0.1l0,0c0,0,0,0,0,0c0,0,0,0,0,0C116.4,25.9,116.3,25.9,116.3,25.9z M116.4,28.1
		c-0.1,0-0.1,0-0.2,0C116.3,28.2,116.3,28.2,116.4,28.1C116.4,28.2,116.4,28.2,116.4,28.1C116.4,28.2,116.4,28.1,116.4,28.1z
		 M116.6,27.1C116.6,27.1,116.5,27.1,116.6,27.1C116.6,27.1,116.6,27.1,116.6,27.1c0,0.1,0,0.1,0,0.2l0,0l0,0c0,0-0.1,0-0.1,0
		c0,0,0,0-0.1,0h0.1c0,0,0,0,0,0c0,0,0,0,0,0l0.1-0.1l0,0c0,0,0,0,0,0c0,0,0,0,0,0l0.1-0.1c0.1-0.1,0.1-0.1,0-0.2h-0.1L116.6,27.1
		C116.6,27.1,116.6,27.1,116.6,27.1z M117.3,20.1c0-0.1,0.1-0.1,0.2-0.2c0,0,0.1-0.1,0.1-0.2c0,0-0.1,0-0.1,0.1
		c-0.1,0-0.1,0-0.1,0.1c0,0,0,0,0,0c0,0,0,0-0.1,0c0,0.1,0,0.1-0.1,0l-0.1,0.1c-0.1,0-0.1,0.1-0.1,0.1c0,0,0,0,0,0
		c0,0-0.1,0-0.1,0.1c0,0,0,0,0,0.1h-0.1c0,0-0.1,0.1-0.1,0.1c0,0.1-0.1,0.1-0.1,0.1c0,0,0,0,0,0l0.1-0.1c0,0,0,0,0.1,0
		c0,0,0,0,0.1-0.1l0.3-0.3C117.2,20.2,117.3,20.1,117.3,20.1z M116.6,18.5C116.6,18.5,116.6,18.5,116.6,18.5
		c0.1-0.1,0.1-0.1,0.1-0.1c0,0,0.1,0,0.1-0.1c0,0,0.1-0.1,0.1-0.1c0,0,0-0.1,0,0c0,0,0,0,0.1,0l0.1-0.1c0.1-0.1,0.1-0.1,0.1-0.2
		l-0.1-0.1L117,18l-0.1,0.1c-0.1,0-0.1,0.1-0.1,0.2l-0.1,0.1l-0.1,0.1L116.6,18.5C116.6,18.4,116.6,18.5,116.6,18.5z M116.7,25.3
		C116.7,25.3,116.7,25.3,116.7,25.3L116.7,25.3L116.7,25.3L116.7,25.3C116.8,25.3,116.8,25.3,116.7,25.3
		C116.7,25.3,116.7,25.3,116.7,25.3z M116.8,26.7L116.8,26.7c0,0.1,0,0.1,0,0.2c0,0,0.1,0,0.1,0L116.8,26.7
		C116.8,26.7,116.8,26.7,116.8,26.7z M117.3,17.7c0,0.1-0.1,0.1-0.1,0.2c0.1-0.1,0.2-0.2,0.3-0.3c0,0,0,0,0,0c0,0,0,0,0,0
		C117.4,17.6,117.3,17.7,117.3,17.7z M117.6,22C117.5,22,117.5,22,117.6,22l-0.2,0c0,0.1,0,0.1,0,0.1
		C117.5,22.1,117.6,22.1,117.6,22z M118.5,21.4C118.5,21.4,118.5,21.3,118.5,21.4l-0.1-0.1c-0.1-0.1-0.1-0.1-0.2-0.2
		c-0.1-0.1-0.1-0.1-0.2-0.2c0,0-0.1-0.1-0.2-0.1c0.1,0.2,0.3,0.3,0.4,0.4c0.1,0.1,0.3,0.2,0.4,0.3L118.5,21.4
		C118.5,21.4,118.5,21.4,118.5,21.4z M118.6,19.3c0,0-0.1-0.1-0.1-0.1l-0.1-0.1l-0.2-0.2c0,0-0.1,0-0.1,0.1c0.1,0,0.1,0.1,0.1,0.1
		c0,0,0,0.1,0,0.1c0,0,0,0,0.1,0.1C118.4,19.3,118.5,19.4,118.6,19.3c0,0.1,0,0.1,0,0.1c0,0,0.1,0.1,0.1,0.1h0.1v0
		C118.8,19.5,118.7,19.4,118.6,19.3z M118.8,17.3c0-0.1-0.1-0.2-0.1-0.2c-0.1-0.1-0.1-0.1-0.2-0.2l-0.1,0.1
		C118.5,17.2,118.6,17.3,118.8,17.3z M118.7,21.7L118.7,21.7C118.7,21.7,118.7,21.7,118.7,21.7C118.7,21.7,118.7,21.8,118.7,21.7
		l0.1,0.1C118.8,21.7,118.8,21.7,118.7,21.7z M119,19.8L119,19.8C119,19.8,119,19.8,119,19.8L119,19.8L119,19.8z M119.8,17.7
		C119.9,17.7,119.9,17.6,119.8,17.7C119.8,17.6,119.8,17.6,119.8,17.7c-0.1,0-0.1,0-0.1,0l-0.1,0c-0.1,0.1-0.1,0.2-0.1,0.2
		c0,0,0,0,0,0c0,0,0,0,0,0c0,0,0,0,0,0c-0.1,0.1-0.1,0.1-0.2,0.2c-0.1,0.1-0.1,0.1-0.2,0.2c0,0,0,0,0,0c0,0,0,0,0,0
		c0.1,0,0.2-0.1,0.2-0.2c0.1-0.1,0.1-0.1,0.2-0.2c0,0,0,0,0,0l0,0l0.1-0.1l0,0l0.1-0.1C119.8,17.8,119.8,17.8,119.8,17.7
		C119.8,17.7,119.8,17.7,119.8,17.7z M119.2,19.6C119.2,19.6,119.2,19.7,119.2,19.6L119.2,19.6C119.1,19.7,119.2,19.7,119.2,19.6
		l0,0.1L119.2,19.6C119.2,19.7,119.2,19.6,119.2,19.6z M120,17.9L120,17.9L120,17.9L120,17.9L120,17.9z"/>
	<path class="st3" d="M136.7,16.7l-6.5,17c-0.1,0.2-0.2,0.3-0.4,0.3h-3.4c-0.3,0-0.4-0.1-0.3-0.4l1.9-4.9h-4.6l-1.9,5
		c-0.1,0.2-0.2,0.3-0.4,0.3h-3.4c-0.3,0-0.4-0.1-0.3-0.4l5.7-14.9c0.6-1.6,1.8-2.4,3.5-2.4h9.8C136.7,16.3,136.8,16.4,136.7,16.7z
		 M118.2,33.4L118.2,33.4c-0.1,0-0.1,0.1,0,0.1h0C118.2,33.4,118.2,33.4,118.2,33.4z M118.9,31.6C118.8,31.7,118.8,31.7,118.9,31.6
		l-0.1,0.1c0,0-0.1,0-0.1,0.1c0,0,0,0,0,0.1c0,0-0.1,0-0.1,0l0,0.1c0,0,0,0,0,0l0,0c0,0-0.1,0-0.1,0c-0.1,0.1-0.1,0.1-0.1,0.1
		c0,0-0.1,0.1-0.1,0.1c0.1,0,0.1,0,0.1-0.1h0c0,0,0,0,0,0c0.1,0,0.1-0.1,0.2-0.2c0-0.1,0.1-0.1,0.2-0.2
		C118.9,31.9,118.9,31.8,118.9,31.6z M119.2,31.4L119.2,31.4L119.2,31.4C119.2,31.4,119.2,31.4,119.2,31.4L119.2,31.4L119.2,31.4z
		 M119.3,33.5L119.3,33.5L119.3,33.5L119.3,33.5C119.3,33.6,119.3,33.6,119.3,33.5z M120.4,33.3c-0.1-0.1-0.3-0.3-0.4-0.4
		c-0.2-0.2-0.3-0.3-0.4-0.3v0.1c0,0,0,0,0,0c0,0,0,0,0,0c0,0,0,0,0.1,0l0.1,0.1c0,0,0.1,0.1,0.1,0.1c0,0,0,0.1,0.1,0.1
		c0.1,0,0.1,0.1,0.1,0.1c0,0,0.1,0.1,0.2,0v0.1c0,0,0,0,0,0c0,0,0,0,0,0C120.2,33.2,120.2,33.3,120.4,33.3
		C120.3,33.3,120.4,33.3,120.4,33.3C120.4,33.3,120.4,33.3,120.4,33.3z M119.6,30.4c0,0.1,0.1,0.1,0.1,0.1c0.1,0,0.1,0.1,0.1,0.1
		h0.1C119.9,30.5,119.8,30.5,119.6,30.4C119.6,30.4,119.6,30.4,119.6,30.4z M120.3,31.1c0,0,0.1,0.1,0.1,0.1c0-0.1-0.1-0.1-0.1-0.2
		c0,0-0.1-0.1-0.2-0.1c-0.1,0-0.1,0-0.1,0c0.1,0.1,0.1,0.2,0.1,0.2C120.2,31,120.3,31,120.3,31.1z M120.2,28.7L120.2,28.7
		L120.2,28.7l0.2,0.1c0,0,0,0,0,0c0,0,0,0,0,0C120.3,28.8,120.2,28.8,120.2,28.7C120.2,28.7,120.2,28.7,120.2,28.7
		c0-0.1,0-0.1,0-0.1C120.1,28.7,120.1,28.7,120.2,28.7z M120.1,31.1C120.1,31.1,120.1,31.1,120.1,31.1L120.1,31.1
		C120.2,31.1,120.2,31.1,120.1,31.1z M120.2,32.9C120.2,32.9,120.2,32.9,120.2,32.9L120.2,32.9C120.2,32.9,120.2,32.9,120.2,32.9z
		 M120.3,28.5c0,0-0.1,0-0.1-0.1c0.1,0.1,0.2,0.2,0.3,0.4l0.1,0c0,0,0,0,0.1,0v0c-0.1,0-0.1-0.1-0.1-0.2c0,0,0-0.1,0-0.1l0,0
		c0,0,0,0,0,0c0,0,0,0,0,0C120.4,28.6,120.4,28.5,120.3,28.5z M120.4,30.8c-0.1,0-0.1,0-0.2,0C120.3,30.9,120.3,30.9,120.4,30.8
		C120.4,30.9,120.5,30.9,120.4,30.8C120.5,30.8,120.5,30.8,120.4,30.8z M120.7,29.9C120.7,29.9,120.7,29.9,120.7,29.9l0.1-0.1
		c0.1-0.1,0.1-0.1,0-0.2h-0.1v0.1c0,0-0.1,0-0.1,0c0,0,0,0,0,0C120.6,29.8,120.6,29.8,120.7,29.9C120.6,29.9,120.6,29.9,120.7,29.9
		l-0.1,0l0,0c0,0-0.1,0-0.1,0c0,0,0,0-0.1,0h0.1c0,0,0,0,0,0c0,0,0,0,0,0L120.7,29.9L120.7,29.9C120.7,29.9,120.7,29.9,120.7,29.9z
		 M120.6,27.8C120.7,27.8,120.7,27.8,120.6,27.8C120.7,27.8,120.7,27.8,120.6,27.8L120.6,27.8c0.2-0.1,0.4-0.2,0.5-0.4
		c0.1-0.1,0.3-0.3,0.4-0.4l0,0c0,0,0,0,0,0c0,0,0,0-0.1,0l-0.1,0.1c-0.2,0.2-0.5,0.5-0.7,0.7C120.7,27.7,120.7,27.8,120.6,27.8z
		 M120.7,28L120.7,28L120.7,28L120.7,28C120.8,28,120.8,28,120.7,28C120.7,27.9,120.7,27.9,120.7,28C120.7,28,120.7,28,120.7,28z
		 M120.7,31.4L120.7,31.4L120.7,31.4L120.7,31.4z M121.6,31.5L121.6,31.5l-0.1,0.1c0,0-0.1,0-0.1,0.1c-0.1,0.1-0.2,0.2-0.3,0.3
		c-0.1,0.1-0.2,0.2-0.3,0.3c0,0,0,0,0,0c0,0,0,0,0,0c0,0,0,0,0,0c0.1-0.1,0.3-0.2,0.4-0.4c0.1-0.1,0.1-0.2,0.3-0.3c0,0,0,0,0-0.1
		c0,0,0-0.1,0-0.1C121.5,31.5,121.6,31.5,121.6,31.5C121.6,31.5,121.6,31.5,121.6,31.5z M121.6,29.1c-0.1,0-0.1,0-0.2,0.1l-0.1,0.1
		c0,0-0.1,0.1-0.1,0.1c-0.1,0.1-0.2,0.2-0.2,0.2l-0.2,0.3c0.1,0,0.2-0.1,0.2-0.1l0,0c0,0,0.1,0,0.1,0l0.1-0.1c0,0,0,0,0,0
		c0,0,0,0,0,0l0.1-0.1c0,0,0,0,0,0c0,0,0,0,0.1,0c0,0,0.1-0.1,0.1-0.1L121.6,29.1C121.6,29.2,121.6,29.2,121.6,29.1z M120.8,29.5
		C120.8,29.5,120.8,29.5,120.8,29.5l0.1-0.2c0,0,0-0.1,0,0l0,0C120.8,29.4,120.8,29.4,120.8,29.5z M121.2,31.6L121.2,31.6
		c0.1,0,0.1,0,0.1-0.1c-0.1,0-0.1-0.1-0.2,0c-0.1,0-0.1,0,0,0.1L121.2,31.6C121.1,31.5,121.1,31.5,121.2,31.6L121.2,31.6
		C121.2,31.5,121.2,31.6,121.2,31.6z M121.1,31.7c0,0,0.1,0,0.1-0.1C121.1,31.7,121.1,31.7,121.1,31.7z M121.5,24.8
		c0.1-0.1,0.1-0.1,0.1-0.2c0,0-0.1,0-0.1,0l-0.1,0.1C121.5,24.8,121.5,24.8,121.5,24.8z M121.8,23.5c0.1,0.2,0.2,0.3,0.4,0.4
		c0.1,0.1,0.3,0.2,0.4,0.3v-0.1c0,0,0,0,0-0.1c0,0,0-0.1,0-0.1l-0.1-0.1c-0.1-0.1-0.1-0.1-0.2-0.2c-0.1-0.1-0.1-0.1-0.2-0.2
		C122,23.5,121.9,23.5,121.8,23.5z M121.9,25.7L121.9,25.7L121.9,25.7c0.1,0.1,0.1,0.1,0.1,0.1l0,0c0,0,0,0,0,0c0,0,0,0.1,0.1,0.1
		c0,0,0.1,0.1,0.2,0.2l0.1,0.1c0,0,0,0,0,0c0,0,0,0,0,0c0.1,0.1,0.1,0.1,0.2,0.2c0.1,0.1,0.1,0.1,0.2,0.2c0,0,0.1,0,0.1,0l-0.1-0.1
		l-0.1-0.1l-0.4-0.4l-0.1-0.1c0,0-0.1-0.1-0.1-0.1c0,0-0.1,0-0.1,0C122,25.7,121.9,25.7,121.9,25.7z M122.6,28.6
		C122.6,28.6,122.6,28.5,122.6,28.6l-0.1-0.2l-0.1-0.1c-0.1,0-0.1-0.1-0.2-0.1c-0.1,0-0.1-0.1-0.1-0.1c0,0-0.1,0-0.1,0h0
		c0,0,0,0,0,0c0,0-0.1,0-0.1,0c0,0.1,0.1,0.1,0.1,0.2c0.1,0.1,0.2,0.3,0.3,0.4c0,0,0.1,0.1,0.1,0.1
		C122.5,28.6,122.5,28.6,122.6,28.6C122.5,28.6,122.5,28.6,122.6,28.6C122.6,28.6,122.6,28.6,122.6,28.6z M122.1,30.3
		c0,0-0.1,0-0.1-0.1c0,0,0,0,0,0c0,0,0,0,0,0v0C122.1,30.4,122.1,30.4,122.1,30.3z M122.8,28.7c-0.1,0-0.1-0.1-0.1-0.1
		C122.6,28.7,122.7,28.7,122.8,28.7c0,0.1,0,0.1,0,0.2c0,0,0,0,0,0v0C122.8,28.7,122.8,28.7,122.8,28.7z M122.8,24.4
		C122.8,24.4,122.8,24.4,122.8,24.4L122.8,24.4C122.8,24.4,122.8,24.3,122.8,24.4L122.8,24.4C122.7,24.4,122.7,24.4,122.8,24.4z
		 M122.8,28.2L122.8,28.2L122.8,28.2L122.8,28.2z M122.9,25.5L122.9,25.5L122.9,25.5C122.9,25.5,122.9,25.5,122.9,25.5z M122.9,27.1
		L122.9,27.1L122.9,27.1L122.9,27.1L122.9,27.1L122.9,27.1L122.9,27.1z M124,26.9c-0.1,0-0.2,0.1-0.3,0.2c0,0,0,0,0,0.1
		c0,0,0,0-0.1,0c0,0-0.1,0.1-0.1,0.1v0c-0.1,0-0.1,0.1-0.1,0.2v0.1c0,0,0,0,0,0l0,0c0,0,0,0,0,0c0,0,0,0,0,0l-0.1,0v-0.1
		c0,0-0.1,0.1-0.1,0.1c0,0,0,0.1-0.1,0.1l0.1,0.1c0,0,0,0,0,0c0.1,0,0.1,0,0.1-0.1h0c0,0,0,0,0,0h0c0,0,0.1-0.1,0.2-0.1c0,0,0,0,0,0
		l0.5-0.5c0,0,0,0,0,0C124,27,124,26.9,124,26.9z M123,23.3L123,23.3c0.2-0.1,0.3-0.2,0.5-0.4c0.1-0.1,0.3-0.3,0.4-0.5
		c0,0,0-0.1,0-0.1c-0.1,0-0.1,0,0,0.1c0,0-0.1,0-0.1,0c-0.1,0.1-0.2,0.2-0.2,0.2l-0.1,0.1c0,0,0,0.1-0.1,0.1
		c-0.1,0.1-0.1,0.1-0.2,0.2C123.2,23.2,123.1,23.2,123,23.3C123,23.3,123,23.3,123,23.3z M123.1,25.5
		C123.1,25.5,123.1,25.5,123.1,25.5L123.1,25.5c0.1,0,0.1,0,0.2,0c0.1-0.1,0.1-0.1,0.2-0.1c0,0,0.1-0.1,0.1-0.1h0c0,0,0,0,0-0.1v0
		l0.1-0.1c0,0,0,0,0-0.1c-0.1,0-0.1,0-0.1,0c0,0-0.1,0.1-0.1,0.1l0.1,0.1c-0.1,0-0.2,0-0.3,0h0l0,0v0c0,0,0,0.1-0.1,0.1c0,0,0,0,0,0
		h0h0c0,0,0,0,0,0L123.1,25.5L123.1,25.5z M123.1,22.4L123.1,22.4L123.1,22.4L123.1,22.4C123.1,22.5,123.1,22.5,123.1,22.4z
		 M123.1,21.1c0.1,0,0.2-0.1,0.2-0.2c0.1-0.1,0.1-0.1,0.2-0.2c0,0,0,0,0,0l0,0l0.1-0.1l0,0l0.1-0.1c0,0,0,0,0-0.1c0,0,0.1,0,0.1-0.1
		c0,0,0,0,0,0c0,0-0.1,0-0.1,0c0,0,0,0,0,0l-0.1,0c-0.1,0.1-0.1,0.2-0.1,0.2c0,0,0,0,0,0c0,0,0,0,0,0c0,0,0,0,0,0
		c-0.1,0.1-0.1,0.1-0.2,0.2C123.2,20.8,123.2,20.9,123.1,21.1C123.1,21,123.1,21,123.1,21.1C123.1,21,123.1,21,123.1,21.1z
		 M123.2,22.3C123.2,22.3,123.2,22.3,123.2,22.3L123.2,22.3C123.2,22.4,123.2,22.4,123.2,22.3l0,0.1L123.2,22.3
		C123.2,22.3,123.2,22.3,123.2,22.3z M123.2,26.3L123.2,26.3C123.3,26.3,123.3,26.3,123.2,26.3L123.2,26.3
		C123.3,26.3,123.2,26.3,123.2,26.3z M123.9,24.7c0,0-0.1,0.1-0.1,0.1h0c0,0,0,0,0,0C123.9,24.8,124,24.7,123.9,24.7
		c0.1,0,0.1,0,0.1-0.1C124,24.6,123.9,24.7,123.9,24.7z M124,20.5L124,20.5L124,20.5L124,20.5L124,20.5z M124.1,26.8L124.1,26.8
		L124.1,26.8C124.1,26.8,124.1,26.8,124.1,26.8C124.1,26.8,124.1,26.8,124.1,26.8z M124.4,21.4C124.4,21.4,124.4,21.3,124.4,21.4
		L124.4,21.4L124.4,21.4l0,0.1h0.1v0L124.4,21.4C124.5,21.4,124.5,21.4,124.4,21.4z M124.5,19.2C124.5,19.3,124.5,19.3,124.5,19.2
		L124.5,19.2C124.5,19.2,124.5,19.2,124.5,19.2z M124.6,19.4L124.6,19.4C124.7,19.5,124.7,19.5,124.6,19.4
		C124.7,19.5,124.7,19.5,124.6,19.4L124.6,19.4L124.6,19.4v-0.1C124.6,19.4,124.6,19.4,124.6,19.4z M124.7,21.6L124.7,21.6
		C124.7,21.6,124.7,21.5,124.7,21.6L124.7,21.6C124.6,21.5,124.6,21.6,124.7,21.6z M131.3,19.2h-3.9c-0.2,0-0.3,0.1-0.4,0.3
		l-2.2,5.9c-0.1,0.3,0,0.4,0.3,0.4h3.9c0.2,0,0.3-0.1,0.4-0.3l2.2-5.9C131.6,19.4,131.5,19.2,131.3,19.2z M124.8,19.6l0.2,0.2
		c0,0,0.1,0.1,0.2,0.1c0-0.1-0.1-0.2-0.1-0.2L124.8,19.6L124.8,19.6C124.8,19.5,124.8,19.6,124.8,19.6z M125.1,21.9
		C125.1,21.9,125.1,21.9,125.1,21.9c-0.1-0.1-0.1-0.2-0.2-0.2l-0.1,0.1c0.1,0,0.1,0.1,0.2,0.2c0,0.1,0.1,0.1,0.2,0.1L125.1,21.9
		C125.1,22,125.1,22,125.1,21.9z M125,17.6C125,17.6,125,17.6,125,17.6L125,17.6C125.1,17.6,125.1,17.6,125,17.6
		C125,17.6,125,17.6,125,17.6C125,17.6,125,17.6,125,17.6z M125.4,21.1L125.4,21.1C125.5,21,125.5,21,125.4,21.1L125.4,21.1
		L125.4,21.1L125.4,21.1z M125.5,20.7c0,0.1,0,0.1,0,0.2l0,0C125.6,20.8,125.6,20.8,125.5,20.7h0.2c0,0,0,0,0,0l0,0
		C125.7,20.6,125.6,20.7,125.5,20.7z M125.6,27.7C125.6,27.7,125.5,27.7,125.6,27.7l-0.1,0.1C125.5,27.8,125.6,27.7,125.6,27.7z
		 M125.6,18.7L125.6,18.7C125.6,18.7,125.6,18.7,125.6,18.7C125.5,18.7,125.5,18.7,125.6,18.7L125.6,18.7
		C125.5,18.8,125.6,18.7,125.6,18.7z M126,27.2c-0.2,0.2-0.3,0.4-0.4,0.5l0.1-0.1l0,0c0,0,0,0,0,0c0,0,0,0,0,0l0.1,0
		c0.1-0.1,0.1-0.1,0.2-0.2c0.1-0.1,0.1-0.1,0.2-0.2c0,0,0.1-0.1,0.1-0.1l0.1-0.1v-0.1C126.4,26.8,126.2,27,126,27.2z M125.8,18.3
		C125.8,18.3,125.8,18.3,125.8,18.3L125.8,18.3C125.8,18.3,125.8,18.3,125.8,18.3C125.8,18.3,125.8,18.3,125.8,18.3L125.8,18.3
		L125.8,18.3z M125.8,20.7L125.8,20.7L125.8,20.7L125.8,20.7C125.8,20.7,125.8,20.7,125.8,20.7C125.8,20.7,125.8,20.7,125.8,20.7
		L125.8,20.7L125.8,20.7L125.8,20.7C125.8,20.7,125.8,20.7,125.8,20.7z M125.9,26.6L125.9,26.6C125.9,26.7,125.9,26.7,125.9,26.6
		L125.9,26.6C125.9,26.6,125.9,26.6,125.9,26.6L125.9,26.6C125.8,26.6,125.9,26.6,125.9,26.6z M125.9,18.5L125.9,18.5L125.9,18.5
		C125.9,18.5,125.9,18.5,125.9,18.5z M125.9,20.6L125.9,20.6C125.9,20.6,125.9,20.6,125.9,20.6L125.9,20.6L125.9,20.6L125.9,20.6
		C125.9,20.6,125.9,20.6,125.9,20.6z M126,18.1C126,18.1,126,18.1,126,18.1L126,18.1L126,18.1L126,18.1z M126.1,20.4
		C126.1,20.4,126.1,20.4,126.1,20.4L126.1,20.4L126.1,20.4C126.1,20.3,126.1,20.3,126.1,20.4C126.1,20.4,126.1,20.4,126.1,20.4z
		 M126.2,18.1c0,0,0.1-0.1,0.1-0.1C126.3,18,126.3,18,126.2,18.1C126.2,18.1,126.2,18.1,126.2,18.1z M126.8,16.9c0,0-0.1,0-0.1,0
		C126.7,16.9,126.7,16.9,126.8,16.9c-0.1,0.1,0,0.1,0,0.1c0,0,0,0,0,0h0C126.9,17,126.8,16.9,126.8,16.9z M126.9,17.2
		c0,0,0.1,0,0.1,0.1l0.1,0.1l0.1,0.1c0,0,0.1,0.1,0.1,0.1c0,0,0,0,0,0l0,0C127.2,17.3,127.1,17.2,126.9,17.2
		C127,17.1,127,17.1,126.9,17.2z M127.2,27.3C127.2,27.3,127.2,27.3,127.2,27.3C127.1,27.3,127.1,27.3,127.2,27.3
		C127.1,27.4,127.1,27.4,127.2,27.3L127.2,27.3C127.1,27.4,127.2,27.4,127.2,27.3z M127.6,17.7C127.6,17.7,127.6,17.6,127.6,17.7
		L127.6,17.7l-0.1-0.2h-0.1C127.4,17.6,127.5,17.7,127.6,17.7z M128.8,26.9C128.8,26.9,128.7,26.9,128.8,26.9l-0.2,0.1
		c-0.1,0.1-0.1,0.1-0.2,0.2l-0.2,0.2c0,0-0.1,0.1-0.1,0.1l-0.1,0.1v0h0.1c0,0,0,0,0.1,0c0,0,0.1-0.1,0.2-0.2c0.1,0,0.1-0.1,0.1-0.2
		c0,0,0,0,0,0c0.1,0,0.1-0.1,0.2-0.1c0,0,0.1-0.1,0.1-0.1C128.8,27,128.8,27,128.8,26.9z M129,31.3L129,31.3
		C129,31.3,129,31.3,129,31.3l-0.1,0c-0.1,0.1-0.2,0.1-0.2,0.2l-0.2,0.2c-0.1,0.1-0.1,0.1-0.2,0.2l-0.2,0.2c0,0,0,0.1,0,0.1
		c0.1,0,0.1-0.1,0.2-0.1c0.1-0.1,0.2-0.2,0.3-0.3c0.1-0.1,0.2-0.2,0.2-0.2l0.1-0.1C128.9,31.5,129,31.4,129,31.3
		C129,31.4,129,31.3,129,31.3z M128.5,18.2c0,0-0.1,0.1-0.1,0.1c0,0,0,0,0,0L128.5,18.2h0.1v-0.1C128.5,18.1,128.5,18.2,128.5,18.2z
		 M128.6,29.4L128.6,29.4L128.6,29.4L128.6,29.4C128.6,29.4,128.6,29.4,128.6,29.4z M128.7,29.4L128.7,29.4L128.7,29.4L128.7,29.4
		C128.7,29.4,128.7,29.4,128.7,29.4z M128.7,18.1L128.7,18.1L128.7,18.1L128.7,18.1z M128.7,18.1L128.7,18.1
		C128.7,18.1,128.7,18.1,128.7,18.1C128.7,18.1,128.7,18.1,128.7,18.1L128.7,18.1C128.7,18.1,128.7,18.1,128.7,18.1z M128.9,29.1
		C128.9,29.1,128.9,29.1,128.9,29.1c0,0.1,0,0.1,0,0.1h-0.1v0h0c0,0,0,0,0,0c0,0,0.1,0,0.1,0C128.9,29.2,128.9,29.2,128.9,29.1
		C128.9,29.1,128.9,29.1,128.9,29.1C128.9,29.1,128.9,29.1,128.9,29.1l0.1,0C129,29.1,129,29.1,128.9,29.1L128.9,29.1L128.9,29.1
		C128.9,29.1,128.9,29.1,128.9,29.1z M128.9,27.2L128.9,27.2C129,27.2,129,27.2,128.9,27.2C128.9,27.2,128.9,27.2,128.9,27.2z
		 M129.1,16.9L129.1,16.9L129.1,16.9L129.1,16.9C129.2,16.8,129.1,16.8,129.1,16.9C129.1,16.8,129.1,16.9,129.1,16.9z M129.2,32.2
		L129.2,32.2L129.2,32.2L129.2,32.2z M129.4,30.1C129.4,30.2,129.4,30.2,129.4,30.1C129.4,30.2,129.4,30.2,129.4,30.1L129.4,30.1
		L129.4,30.1z M129.5,32.4L129.5,32.4C129.4,32.4,129.4,32.4,129.5,32.4L129.5,32.4C129.5,32.5,129.5,32.4,129.5,32.4z M129.7,30.5
		C129.7,30.5,129.7,30.5,129.7,30.5L129.7,30.5L129.7,30.5l-0.2-0.2l0,0l0.1,0.1L129.7,30.5C129.6,30.4,129.6,30.5,129.7,30.5z
		 M129.5,17.3L129.5,17.3L129.5,17.3C129.6,17.3,129.6,17.3,129.5,17.3C129.7,17.3,129.7,17.3,129.5,17.3
		C129.6,17.2,129.6,17.2,129.5,17.3C129.6,17.2,129.6,17.2,129.5,17.3L129.5,17.3L129.5,17.3z M129.5,28.1L129.5,28.1L129.5,28.1
		L129.5,28.1L129.5,28.1z M129.8,28.4L129.8,28.4c0,0.1,0,0.1,0.1,0.1v0c0,0.1,0.1,0.1,0.1,0c0,0,0,0,0-0.1c0,0,0,0,0,0c0,0,0,0,0,0
		c-0.1-0.1-0.2-0.2-0.2-0.2c0,0,0,0,0,0c0,0,0,0-0.1,0c0,0,0,0.1,0,0.2L129.8,28.4C129.8,28.4,129.8,28.4,129.8,28.4z M129.8,32.6
		L129.8,32.6C129.7,32.6,129.7,32.6,129.8,32.6L129.8,32.6L129.8,32.6z M129.7,17.3c0,0.1,0.1,0.2,0.1,0.2l0,0c0,0,0,0,0,0
		C129.9,17.4,129.8,17.4,129.7,17.3z M129.9,30.6L129.9,30.6L129.9,30.6L129.9,30.6c0-0.1,0-0.1,0-0.1L129.9,30.6
		C129.8,30.6,129.8,30.6,129.9,30.6L129.9,30.6L129.9,30.6z M130.1,30.8c0-0.1-0.1-0.1-0.1-0.1l0,0l0,0l0.1,0.1H130.1L130.1,30.8
		C130.1,30.8,130.1,30.8,130.1,30.8z M129.9,32.8C129.9,32.8,129.9,32.8,129.9,32.8L129.9,32.8c0,0,0,0,0,0.1L129.9,32.8L129.9,32.8
		z M129.9,17.6C129.9,17.6,129.9,17.6,129.9,17.6l0.1,0.1c0,0,0.1,0,0.1,0v0c0,0,0,0,0,0l0,0v-0.1c0,0,0,0,0,0l0,0c0,0,0,0,0,0
		C130,17.6,130,17.6,129.9,17.6z M130.6,25.4L130.6,25.4C130.6,25.4,130.6,25.4,130.6,25.4C130.6,25.4,130.5,25.4,130.6,25.4
		C130.5,25.4,130.5,25.4,130.6,25.4L130.6,25.4c-0.1,0-0.1,0-0.1,0C130.5,25.5,130.5,25.4,130.6,25.4z M130.7,27.5
		C130.6,27.5,130.6,27.5,130.7,27.5c-0.1,0-0.1,0-0.1,0c0,0,0,0.1,0,0.1v0c0,0,0,0,0.1,0L130.7,27.5
		C130.7,27.6,130.7,27.6,130.7,27.5L130.7,27.5z M130.7,25.2C130.7,25.3,130.7,25.3,130.7,25.2c0.1,0,0.1,0,0.1,0c0,0,0,0,0.1-0.1
		c0,0,0,0,0,0l-0.1-0.1c0,0,0,0,0,0c0,0,0,0,0,0c0,0,0,0,0,0L130.7,25.2L130.7,25.2z M130.7,27.5C130.7,27.5,130.8,27.5,130.7,27.5
		c0.1-0.1,0.1-0.1,0.1-0.1c0,0-0.1,0-0.1,0C130.7,27.4,130.7,27.4,130.7,27.5L130.7,27.5C130.7,27.5,130.7,27.5,130.7,27.5z
		 M130.8,22.9C130.8,22.9,130.8,22.9,130.8,22.9l-0.1,0.2l0,0L130.8,22.9c0.1,0,0.1,0,0.1,0C130.9,22.8,130.9,22.8,130.8,22.9
		c0.1-0.1,0.1-0.1,0-0.1C130.8,22.8,130.8,22.8,130.8,22.9C130.9,22.9,130.9,22.9,130.8,22.9z M130.8,29.7L130.8,29.7
		C130.7,29.7,130.7,29.8,130.8,29.7L130.8,29.7L130.8,29.7L130.8,29.7z M131.2,29.4C131.2,29.4,131.2,29.3,131.2,29.4
		c0.1-0.1,0-0.1,0-0.1h0c0,0-0.1,0.1-0.1,0.1c0,0,0,0-0.1,0c-0.1,0-0.1,0.1-0.1,0.2c0,0,0,0.1,0.1,0.1C131,29.6,131,29.5,131.2,29.4
		C131.1,29.5,131.1,29.4,131.2,29.4z M131,25C131,25,131,25,131,25L131,25L131,25L131,25z M131,24.9c0,0.1,0.1,0.1,0.1,0
		c0,0,0.1-0.1,0.1-0.1c0.1-0.1,0.1-0.1,0.1-0.1c0,0,0-0.1,0-0.1c-0.1,0-0.2,0.1-0.2,0.1C131.1,24.8,131.1,24.8,131,24.9z M131,22.6
		c0,0,0,0.1,0,0.1c0.1,0,0.1-0.1,0.1-0.1C131.1,22.6,131.1,22.6,131,22.6C131,22.6,131,22.6,131,22.6z M131.5,26.7
		C131.5,26.7,131.4,26.7,131.5,26.7C131.4,26.7,131.4,26.7,131.5,26.7l-0.2,0.2l0,0c0,0,0,0,0,0C131.4,26.9,131.5,26.8,131.5,26.7z
		 M131.5,16.8c0,0.1,0.1,0.1,0.1,0.1c0,0,0.1,0.1,0.1,0.1c0.1,0.1,0.1,0.1,0.2,0.2c0.1,0.1,0.1,0.1,0.2,0.2c0,0,0.1,0.1,0.1,0.1
		c0-0.1,0-0.1-0.1-0.2c-0.1-0.1-0.1-0.1-0.2-0.2c-0.1-0.1-0.1-0.1-0.2-0.2C131.7,16.8,131.6,16.8,131.5,16.8z M131.7,21.3
		L131.7,21.3L131.7,21.3C131.8,21.4,131.8,21.4,131.7,21.3l0.1,0.1h0.1c0,0,0,0,0,0c0,0,0,0,0,0l0,0
		C131.8,21.4,131.8,21.4,131.7,21.3c0.1,0,0-0.1,0-0.1c0,0-0.1,0-0.1,0C131.6,21.3,131.7,21.3,131.7,21.3z M131.7,23.5
		C131.8,23.5,131.8,23.5,131.7,23.5L131.7,23.5C131.8,23.4,131.7,23.4,131.7,23.5L131.7,23.5C131.7,23.5,131.7,23.5,131.7,23.5z
		 M131.9,25.8c0,0,0-0.1,0-0.1c0,0-0.1,0-0.1,0c0,0,0,0,0,0C131.8,25.8,131.9,25.8,131.9,25.8C131.9,25.9,131.9,25.9,131.9,25.8
		L131.9,25.8C132,25.8,132,25.8,131.9,25.8z M132,23.6c0,0-0.1-0.1-0.1-0.1c0,0-0.1,0-0.1,0c0,0,0,0,0,0
		C131.9,23.7,131.9,23.7,132,23.6C132,23.7,132,23.7,132,23.6z M132,21.5C132,21.5,132,21.5,132,21.5l0-0.1
		C132,21.5,132,21.5,132,21.5z M132.1,26c0,0,0-0.1,0-0.1l0,0l0,0C132,26,132,26,132.1,26C132.1,26,132.1,26,132.1,26
		C132.1,26.1,132.1,26.1,132.1,26C132.2,26.1,132.2,26.1,132.1,26L132.1,26C132.2,26,132.1,26,132.1,26z M132.3,21.8
		c0-0.1,0-0.1,0-0.1c0,0,0,0-0.1-0.1l0,0c0,0,0,0.1,0,0.1C132.1,21.7,132.2,21.8,132.3,21.8z M132.2,23.8
		C132.1,23.7,132.1,23.7,132.2,23.8c-0.1,0.1-0.1,0.1,0,0.1C132.2,23.9,132.2,23.8,132.2,23.8z M132.4,21.9c0,0-0.1,0-0.2,0
		L132.4,21.9c0,0.1,0,0.1,0.1,0.2C132.5,22,132.4,21.9,132.4,21.9z M132.5,24.1c0-0.1-0.1-0.1-0.2-0.1c0,0,0,0.1,0,0.1
		C132.3,24.1,132.4,24.2,132.5,24.1l0.1,0.2c0,0,0,0,0,0h0C132.6,24.2,132.5,24.1,132.5,24.1z M132.4,17.7
		C132.4,17.7,132.5,17.7,132.4,17.7c0.1,0.1,0.1,0.1,0.1,0.1C132.6,17.7,132.5,17.7,132.4,17.7C132.5,17.6,132.4,17.6,132.4,17.7z
		 M132.8,23.2c0,0-0.1,0-0.1,0.1c0,0,0,0,0,0C132.8,23.3,132.8,23.3,132.8,23.2z M132.9,17.8L132.9,17.8L132.9,17.8L132.9,17.8z
		 M133,23.1C133,23.1,133,23,133,23.1L133,23.1c-0.1,0-0.1,0.1-0.1,0.1C132.9,23.2,133,23.2,133,23.1z M133.2,18.5L133.2,18.5
		C133.2,18.4,133.3,18.4,133.2,18.5c0.1-0.1,0.1-0.1,0-0.2C133.1,18.3,133.1,18.4,133.2,18.5C133.1,18.5,133.1,18.5,133.2,18.5z
		 M133.2,20.7c0,0,0.1-0.1,0.1-0.1l0,0C133.3,20.5,133.2,20.6,133.2,20.7z M133.8,22.3L133.8,22.3C133.7,22.3,133.7,22.4,133.8,22.3
		c-0.1,0.1-0.1,0.1-0.2,0.1c0,0-0.1,0.1,0,0.2c0,0,0-0.1-0.1-0.1c0,0-0.1,0.1-0.1,0c0,0.1,0,0.1-0.1,0.1l-0.1,0c0,0,0,0.1,0,0.1
		c0.1,0,0.1,0,0.1-0.1c0.1-0.1,0.1-0.1,0.2-0.1c0,0,0,0,0,0C133.6,22.5,133.7,22.5,133.8,22.3L133.8,22.3L133.8,22.3z M133.4,18.3
		c0.1-0.1,0.1-0.1,0.2-0.2c0.1,0,0.1-0.1,0.1-0.2c-0.1,0.1-0.2,0.1-0.3,0.2C133.3,18.2,133.3,18.2,133.4,18.3z M133.5,20.2
		c0,0-0.1,0.1-0.1,0.2c0,0,0,0,0,0c0,0,0,0,0,0l0,0c0.1-0.1,0.1-0.2,0.2-0.2c0,0,0,0,0-0.1c0,0,0,0,0-0.1
		C133.6,20.1,133.6,20.1,133.5,20.2z M134.5,17.2c-0.1-0.1-0.3-0.2-0.4-0.3c-0.1,0-0.1-0.1-0.1-0.1c0,0-0.1,0-0.1,0s0,0,0,0
		c0,0,0,0,0,0s0,0,0,0l0.2,0.2c0,0,0.1,0.1,0.1,0.1c0,0,0.1,0.1,0.1,0.1c0.1,0.1,0.2,0.2,0.4,0.3h0c0,0,0,0,0,0v0
		C134.7,17.4,134.7,17.3,134.5,17.2z M134.7,19.5C134.7,19.5,134.7,19.5,134.7,19.5c-0.1-0.1-0.1-0.1-0.2-0.1c0,0.1,0,0.1,0,0.2
		L134.7,19.5c0,0.1,0,0.1,0,0.1s0,0,0,0h0C134.8,19.6,134.7,19.6,134.7,19.5z"/>
</g>
</svg>
